<?xml version="1.0" encoding="UTF-8" standalone="no"?>
<!-- Created with Inkscape (http://www.inkscape.org/) -->

<svg
   xmlns:dc="http://purl.org/dc/elements/1.1/"
   xmlns:cc="http://creativecommons.org/ns#"
   xmlns:rdf="http://www.w3.org/1999/02/22-rdf-syntax-ns#"
   xmlns:svg="http://www.w3.org/2000/svg"
   xmlns="http://www.w3.org/2000/svg"
   xmlns:sodipodi="http://sodipodi.sourceforge.net/DTD/sodipodi-0.dtd"
   xmlns:inkscape="http://www.inkscape.org/namespaces/inkscape"
   width="210mm"
   height="297mm"
   viewBox="0 0 210 297"
   version="1.1"
   id="svg8"
   inkscape:version="0.92.5 (2060ec1f9f, 2020-04-08)"
   sodipodi:docname="ilhas.svg"
   inkscape:export-filename="/home/thiago/Documentos/AlgoritmosBásicos/grafos/assets/svg/ilhas.png"
   inkscape:export-xdpi="97"
   inkscape:export-ydpi="97">
  <defs
     id="defs2">
    <inkscape:path-effect
       effect="bspline"
       id="path-effect1420"
       is_visible="true"
       weight="33.333333"
       steps="2"
       helper_size="0"
       apply_no_weight="true"
       apply_with_weight="true"
       only_selected="false" />
    <inkscape:path-effect
       effect="bspline"
       id="path-effect1156"
       is_visible="true"
       weight="33.333333"
       steps="2"
       helper_size="0"
       apply_no_weight="true"
       apply_with_weight="true"
       only_selected="false" />
    <inkscape:path-effect
       effect="bspline"
       id="path-effect1152"
       is_visible="true"
       weight="33.333333"
       steps="2"
       helper_size="0"
       apply_no_weight="true"
       apply_with_weight="true"
       only_selected="false" />
    <inkscape:path-effect
       effect="spiro"
       id="path-effect1126"
       is_visible="true" />
    <inkscape:path-effect
       effect="spiro"
       id="path-effect1122"
       is_visible="true" />
    <inkscape:path-effect
       effect="bspline"
       id="path-effect1118"
       is_visible="true"
       weight="33.333333"
       steps="2"
       helper_size="0"
       apply_no_weight="true"
       apply_with_weight="true"
       only_selected="false" />
    <inkscape:path-effect
       effect="bspline"
       id="path-effect1114"
       is_visible="true"
       weight="33.333333"
       steps="2"
       helper_size="0"
       apply_no_weight="true"
       apply_with_weight="true"
       only_selected="false" />
    <inkscape:path-effect
       effect="bspline"
       id="path-effect930"
       is_visible="true"
       weight="33.333333"
       steps="2"
       helper_size="0"
       apply_no_weight="true"
       apply_with_weight="true"
       only_selected="false" />
    <inkscape:path-effect
       effect="bspline"
       id="path-effect926"
       is_visible="true"
       weight="33.333333"
       steps="2"
       helper_size="0"
       apply_no_weight="true"
       apply_with_weight="true"
       only_selected="false" />
    <inkscape:path-effect
       effect="bspline"
       id="path-effect922"
       is_visible="true"
       weight="33.333333"
       steps="2"
       helper_size="0"
       apply_no_weight="true"
       apply_with_weight="true"
       only_selected="false" />
    <inkscape:path-effect
       effect="bspline"
       id="path-effect918"
       is_visible="true"
       weight="33.333333"
       steps="2"
       helper_size="0"
       apply_no_weight="true"
       apply_with_weight="true"
       only_selected="false" />
    <inkscape:path-effect
       effect="bspline"
       id="path-effect914"
       is_visible="true"
       weight="33.333333"
       steps="2"
       helper_size="0"
       apply_no_weight="true"
       apply_with_weight="true"
       only_selected="false" />
    <inkscape:path-effect
       effect="bspline"
       id="path-effect910"
       is_visible="true"
       weight="33.333333"
       steps="2"
       helper_size="0"
       apply_no_weight="true"
       apply_with_weight="true"
       only_selected="false" />
    <inkscape:path-effect
       effect="bspline"
       id="path-effect906"
       is_visible="true"
       weight="33.333333"
       steps="2"
       helper_size="0"
       apply_no_weight="true"
       apply_with_weight="true"
       only_selected="false" />
    <inkscape:path-effect
       effect="bspline"
       id="path-effect873"
       is_visible="true"
       weight="33.333333"
       steps="2"
       helper_size="0"
       apply_no_weight="true"
       apply_with_weight="true"
       only_selected="false" />
    <inkscape:path-effect
       effect="bspline"
       id="path-effect857"
       is_visible="true"
       weight="33.333333"
       steps="2"
       helper_size="0"
       apply_no_weight="true"
       apply_with_weight="true"
       only_selected="false" />
    <inkscape:path-effect
       effect="spiro"
       id="path-effect853"
       is_visible="true" />
    <inkscape:path-effect
       effect="bspline"
       id="path-effect849"
       is_visible="true"
       weight="33.333333"
       steps="2"
       helper_size="0"
       apply_no_weight="true"
       apply_with_weight="true"
       only_selected="false" />
    <inkscape:path-effect
       effect="bspline"
       id="path-effect845"
       is_visible="true"
       weight="33.333333"
       steps="2"
       helper_size="0"
       apply_no_weight="true"
       apply_with_weight="true"
       only_selected="false" />
    <inkscape:path-effect
       effect="bspline"
       id="path-effect841"
       is_visible="true"
       weight="33.333333"
       steps="2"
       helper_size="0"
       apply_no_weight="true"
       apply_with_weight="true"
       only_selected="false" />
    <inkscape:path-effect
       effect="bspline"
       id="path-effect837"
       is_visible="true"
       weight="33.333333"
       steps="2"
       helper_size="0"
       apply_no_weight="true"
       apply_with_weight="true"
       only_selected="false" />
    <inkscape:path-effect
       effect="bspline"
       id="path-effect833"
       is_visible="true"
       weight="33.333333"
       steps="2"
       helper_size="0"
       apply_no_weight="true"
       apply_with_weight="true"
       only_selected="false" />
    <inkscape:path-effect
       effect="bspline"
       id="path-effect829"
       is_visible="true"
       weight="33.333333"
       steps="2"
       helper_size="0"
       apply_no_weight="true"
       apply_with_weight="true"
       only_selected="false" />
    <inkscape:path-effect
       effect="bspline"
       id="path-effect825"
       is_visible="true"
       weight="33.333333"
       steps="2"
       helper_size="0"
       apply_no_weight="true"
       apply_with_weight="true"
       only_selected="false" />
    <inkscape:path-effect
       effect="bspline"
       id="path-effect821"
       is_visible="true"
       weight="33.333333"
       steps="2"
       helper_size="0"
       apply_no_weight="true"
       apply_with_weight="true"
       only_selected="false" />
    <inkscape:path-effect
       effect="bspline"
       id="path-effect817"
       is_visible="true"
       weight="33.333333"
       steps="2"
       helper_size="0"
       apply_no_weight="true"
       apply_with_weight="true"
       only_selected="false" />
    <inkscape:path-effect
       effect="spiro"
       id="path-effect853-3"
       is_visible="true" />
    <inkscape:path-effect
       effect="spiro"
       id="path-effect1126-7"
       is_visible="true" />
  </defs>
  <sodipodi:namedview
     id="base"
     pagecolor="#ffffff"
     bordercolor="#666666"
     borderopacity="1.0"
     inkscape:pageopacity="0.0"
     inkscape:pageshadow="2"
     inkscape:zoom="0.17417514"
     inkscape:cx="557.73044"
     inkscape:cy="252.39831"
     inkscape:document-units="mm"
     inkscape:current-layer="layer1"
     showgrid="false"
     inkscape:window-width="1366"
     inkscape:window-height="741"
     inkscape:window-x="0"
     inkscape:window-y="0"
     inkscape:window-maximized="1" />
  <metadata
     id="metadata5">
    <rdf:RDF>
      <cc:Work
         rdf:about="">
        <dc:format>image/svg+xml</dc:format>
        <dc:type
           rdf:resource="http://purl.org/dc/dcmitype/StillImage" />
        <dc:title></dc:title>
      </cc:Work>
    </rdf:RDF>
  </metadata>
  <g
     inkscape:label="Camada 1"
     inkscape:groupmode="layer"
     id="layer1">
    <rect
       style="opacity:1;fill:#35647e;fill-opacity:1;stroke:none;stroke-width:0.54300094;stroke-linecap:round;stroke-miterlimit:4;stroke-dasharray:none;stroke-dashoffset:0;stroke-opacity:1;paint-order:markers fill stroke"
       id="rect1391"
       width="137.01637"
       height="133.4256"
       x="36.99588"
       y="76.913269"
       ry="0.039035384"
       inkscape:export-filename="/home/thiago/Documentos/Algoritmos/Algoritmos/grafos/assets/ilhas.png"
       inkscape:export-xdpi="97"
       inkscape:export-ydpi="97" />
    <path
       style="fill:#0fa9ff;fill-opacity:1;stroke:none;stroke-width:0.26458332px;stroke-linecap:butt;stroke-linejoin:miter;stroke-opacity:1"
       d="m 74.568197,262.52223 c 4.010334,-1.84662 8.523817,-2.17743 12.828571,-3.15819 2.152377,-0.49038 4.283612,-1.15529 6.211669,-2.23037 1.928056,-1.07508 3.652648,-2.58309 4.746749,-4.50042 1.076156,-1.88588 1.501801,-4.09792 1.450166,-6.26863 -0.05163,-2.17071 -0.561943,-4.30911 -1.258849,-6.36556 -1.393813,-4.11289 -3.543078,-7.97878 -4.467629,-12.22187 -0.307386,-1.4107 -0.470217,-2.91122 0,-4.27631 0.461515,-1.33982 1.512814,-2.432 2.761833,-3.10139 1.249019,-0.66939 2.683348,-0.94064 4.100363,-0.95436 2.83404,-0.0275 5.57442,0.93014 8.37217,1.38305 4.19093,0.67844 8.53619,0.20818 12.55918,-1.14817 4.02299,-1.35635 7.72821,-3.58287 10.96053,-6.33537 6.49636,-5.53202 11.06651,-13.19756 13.23611,-21.44975 2.1696,-8.2522 1.98303,-17.05809 -0.1399,-25.32242 -1.50438,-5.85637 -4.07275,-11.6153 -8.46402,-15.77185 -2.19563,-2.07827 -4.82845,-3.72008 -7.71672,-4.61336 -2.88827,-0.89327 -6.03398,-1.01914 -8.9426,-0.19454 -2.49076,0.70613 -4.73943,2.07284 -7.15884,2.99424 -1.2097,0.4607 -2.472,0.81127 -3.76369,0.89586 -1.2917,0.0846 -2.61813,-0.10669 -3.77729,-0.68287 -1.55207,-0.77149 -2.69969,-2.16849 -3.6343,-3.62815 -0.93461,-1.45965 -1.70984,-3.02667 -2.780167,-4.38994 -1.690503,-2.15319 -4.086111,-3.72067 -6.703212,-4.52366 -2.617102,-0.803 -5.444419,-0.85426 -8.117925,-0.26571 -5.347014,1.17709 -9.918082,4.85243 -13.030356,9.35686 -3.112273,4.50442 -4.895976,9.7976 -6.130881,15.13155 -1.234906,5.33396 -1.95838,10.77535 -3.168089,16.11508 -0.437193,1.9298 -0.970709,3.9125 -2.223273,5.44427 -0.626282,0.76589 -1.430228,1.40072 -2.357475,1.74573 -0.927247,0.345 -1.980932,0.38541 -2.902801,0.0263 -0.761038,-0.29647 -1.406011,-0.8511 -1.884576,-1.51296 -0.478566,-0.66185 -0.798154,-1.42811 -1.017241,-2.21493 -0.438175,-1.57362 -0.484998,-3.23028 -0.839955,-4.82474 -0.876046,-3.93519 -3.686535,-7.337 -7.27405,-9.17626 -3.587516,-1.83927 -7.875421,-2.15565 -11.772018,-1.12139 -3.896597,1.03426 -7.395825,3.36728 -10.063168,6.39027 -2.667343,3.02299 -4.523896,6.71396 -5.635802,10.58912 -0.962916,3.3559 -1.379894,6.84008 -2.054575,10.26559 -0.674681,3.4255 -1.637676,6.86392 -3.558086,9.77962 -1.6778768,2.54747 -4.0300797,4.60854 -5.6126595,7.21628 -2.534533,4.17635 -2.8437998,9.40743 -1.859935,14.19259 0.9838648,4.78516 3.1514102,9.23307 5.3344388,13.60344 1.6767997,3.35691 3.4345607,6.78289 6.2110067,9.30715 1.388222,1.26213 3.02443,2.27626 4.824787,2.80432 1.800358,0.52805 3.769729,0.55146 5.534917,-0.0843 1.924618,-0.69322 3.487888,-2.10069 5.123157,-3.32976 0.817635,-0.61453 1.669288,-1.19361 2.599413,-1.61911 0.930125,-0.42549 1.945832,-0.69416 2.96821,-0.66379 0.980714,0.0291 1.945739,0.33518 2.78986,0.83529 0.844121,0.50011 1.569009,1.19052 2.150138,1.98105 1.162259,1.58106 1.736725,3.52571 2.00901,5.46902 0.513987,3.66835 0.02266,7.40502 0.28811,11.09968 0.132724,1.84733 0.459859,3.69686 1.173836,5.4058 0.713977,1.70894 1.833516,3.27673 3.348907,4.34155 1.445346,1.0156 3.207097,1.53992 4.971915,1.61661 1.764817,0.0767 3.532699,-0.28078 5.183908,-0.90845 3.302417,-1.25535 6.09434,-3.53885 8.820313,-5.78628 2.428746,-2.00238 4.891622,-4.02884 7.750815,-5.3454 z"
       id="path851"
       inkscape:connector-curvature="0"
       inkscape:path-effect="#path-effect853"
       inkscape:original-d="m 74.568197,262.52223 c 2.583342,-1.78153 15.858257,-6.59292 23.786989,-9.88898 7.928734,-3.29606 -2.85061,-16.57097 -4.276312,-24.85606 -1.425702,-8.28509 2.64e-4,-2.85114 0,-4.27631 -2.65e-4,-1.42518 10.156506,-1.78207 15.234366,-2.6727 5.07785,-0.89063 15.68007,-4.98929 23.51971,-7.48354 7.83965,-2.49426 8.73107,-31.18171 13.09621,-46.77217 4.36514,-15.59046 -16.74862,-13.7201 -25.12334,-20.57975 -8.37471,-6.85966 -9.79961,2.13789 -14.69982,3.20723 -4.9002,1.06934 -4.27605,-5.34565 -6.414467,-8.01809 -2.138421,-2.67243 -24.766712,23.87582 -37.150463,35.81412 -12.383754,11.9383 -4.988769,4.81059 -7.483549,7.21628 -2.49478,2.40569 -2.494251,-5.70202 -3.741772,-8.55263 -1.247524,-2.85061 -23.163096,4.45423 -34.745038,6.68174 -11.5819444,2.22751 -3.741509,13.36321 -5.612661,20.04521 -1.8711506,6.68201 -3.7415082,4.81059 -5.6126595,7.21628 -1.8711513,2.40569 2.3166004,18.53043 3.4745038,27.79603 1.1579034,9.26561 11.0474047,8.01782 16.5707107,12.02713 5.523306,4.00931 7.127451,-3.74204 10.69078,-5.61266 3.563329,-1.87062 4.632936,5.52331 6.949008,8.28536 2.316073,2.76205 3.207499,13.89775 4.810853,20.84703 1.603351,6.94926 12.65102,-3.38569 18.976136,-5.07812 6.325113,-1.69246 5.167474,-3.56387 7.750815,-5.3454 z"
       transform="translate(30.286803,-61.726506)"
       inkscape:export-filename="/home/thiago/Documentos/Algoritmos/Algoritmos/grafos/assets/ilhas.png"
       inkscape:export-xdpi="97"
       inkscape:export-ydpi="97" />
    <path
       style="fill:#f1d685;fill-opacity:1;stroke:none;stroke-width:0.26458332px;stroke-linecap:butt;stroke-linejoin:miter;stroke-opacity:1"
       d="m 74.323322,244.448 c -3.363277,-0.74626 -3.430094,-2.06033 -3.029161,-3.35204 0.400934,-1.29171 1.269725,-2.56148 2.46114,-4.03125 1.191416,-1.46976 2.706308,-3.1406 4.354271,-3.65276 1.647962,-0.51215 3.430055,0.13386 4.833092,1.06921 1.403038,0.93536 2.427654,2.16044 3.97573,2.95115 1.548076,0.7907 3.619372,1.14706 5.122623,1.70382 1.503251,0.55677 2.438791,1.31411 2.171663,2.41643 -0.267128,1.10232 -1.73716,2.55008 -5.802492,3.18496 -4.065332,0.63488 -10.72359,0.45674 -14.086866,-0.28952 z"
       id="path847"
       inkscape:connector-curvature="0"
       inkscape:path-effect="#path-effect849"
       inkscape:original-d="m 71.026876,245.01607 c -0.06655,-1.31434 -0.133371,-2.62841 -0.200453,-3.94222 0.868725,-1.26956 1.737518,-2.53933 2.605878,-3.80859 1.51443,-1.6703 3.029321,-3.34114 4.543584,-5.01131 1.781765,0.64553 3.563858,1.29154 5.34539,1.93771 1.02471,1.22462 2.04933,2.4497 3.073599,3.67495 2.071647,0.35611 4.142943,0.71246 6.214017,1.06908 0.935612,0.75692 1.871152,1.51426 2.80633,2.27179 -1.469671,1.4474 -2.939701,2.89516 -4.409948,4.34313 -6.66041,-0.17847 -13.318668,-0.35662 -19.978397,-0.53454 z"
       inkscape:export-filename="/home/thiago/Documentos/Algoritmos/Algoritmos/grafos/assets/ilhas.png"
       inkscape:export-xdpi="97"
       inkscape:export-ydpi="97"
       transform="translate(30.381297,-62.281658)" />
    <path
       style="fill:#f1d685;fill-opacity:1;stroke:none;stroke-width:0.26458332px;stroke-linecap:butt;stroke-linejoin:miter;stroke-opacity:1"
       d="m 35.309386,194.72581 c 2.488379,-1.35423 6.45713,0.0947 8.346946,3.4332 1.889815,3.33853 1.70082,8.5674 3.05531,12.56786 1.354489,4.00046 4.252154,6.77214 3.685307,10.70924 -0.566847,3.93709 -4.598601,9.03978 -9.5755,10.5203 -4.976899,1.48052 -10.898185,-0.66122 -14.646448,-1.92115 -3.748263,-1.25993 -5.323125,-1.6379 -5.82713,-3.62266 -0.504006,-1.98476 0.06289,-5.5751 1.984222,-9.51218 1.921332,-3.93707 5.197395,-8.22115 7.339152,-12.44175 2.141757,-4.22061 3.149762,-8.37863 5.638141,-9.73286 z"
       id="path815"
       inkscape:connector-curvature="0"
       inkscape:path-effect="#path-effect817"
       inkscape:original-d="m 33.828868,191.92262 c 3.969014,1.44864 7.937764,2.89755 11.90625,4.34672 -0.188717,5.22821 -0.377712,10.45708 -0.566963,15.68601 2.898233,2.77171 5.795899,5.54339 8.693452,8.31548 -4.031472,5.1024 -8.063227,10.20509 -12.095239,15.30804 -5.921701,-2.14226 -11.842988,-4.284 -17.76488,-6.4256 -1.574676,-0.37825 -3.149537,-0.75622 -4.724702,-1.13393 0.567297,-3.59147 1.134193,-7.18181 1.700892,-10.77232 3.275786,-4.28364 6.551852,-8.56772 9.827381,-12.85119 1.008131,-4.15772 2.016138,-8.31574 3.023809,-12.47321 z"
       inkscape:export-filename="/home/thiago/Documentos/Algoritmos/Algoritmos/grafos/assets/ilhas.png"
       inkscape:export-xdpi="97"
       inkscape:export-ydpi="97"
       transform="translate(30.381297,-62.281658)" />
    <path
       style="fill:#f1d685;fill-opacity:1;stroke:none;stroke-width:0.26458332px;stroke-linecap:butt;stroke-linejoin:miter;stroke-opacity:1"
       d="m 101.20323,166.18874 c -4.819063,-2.8663 -10.11073,-3.30727 -15.08749,-3.05531 -4.976759,0.25197 -9.638253,1.19686 -12.81969,3.55921 -3.181437,2.36234 -4.882215,6.14186 -5.323248,9.73284 -0.441032,3.59098 0.377846,6.99248 1.763934,8.91399 1.386088,1.92151 3.338856,2.36245 4.378199,1.88989 1.039343,-0.47256 1.165349,-1.85862 1.259828,-3.46483 0.09448,-1.6062 0.157488,-3.43346 1.637755,-3.87434 1.480266,-0.44088 4.378517,0.5042 6.32496,1.97188 1.946442,1.46767 2.967031,3.50885 4.290055,5.02086 1.323025,1.51201 2.960833,2.51989 5.16562,4.03174 2.204786,1.51186 4.976735,3.52782 5.197317,6.33094 0.220583,2.80313 -2.11031,6.39396 -3.968771,9.51237 -1.85846,3.11842 -3.244252,5.76402 -2.330577,7.18161 0.913676,1.41759 4.126089,1.60655 8.252171,0.81911 4.126077,-0.78745 9.166157,-2.55147 13.355267,-3.59085 4.18911,-1.03939 7.52811,-1.35439 9.66985,-2.9608 2.14173,-1.60642 3.08675,-4.50449 3.74815,-7.78007 0.66141,-3.27558 1.03942,-6.92975 1.32289,-10.61487 0.28347,-3.68511 0.47247,-7.40217 -1.76358,-9.10295 -2.23605,-1.70077 -6.89811,-1.38577 -11.40261,-3.87428 -4.5045,-2.4885 -8.85096,-7.77985 -13.67003,-10.64614 z"
       id="path819"
       inkscape:connector-curvature="0"
       inkscape:path-effect="#path-effect821"
       inkscape:original-d="m 101.67559,163.76339 c -5.291399,-0.44124 -10.583066,-0.88221 -15.874997,-1.32291 -4.661654,0.94471 -9.323147,1.88961 -13.985118,2.83481 -1.700739,3.77975 -3.40152,7.55926 -5.102677,11.33929 0.819282,3.40181 1.638159,6.80331 2.456844,10.20536 1.953252,0.44073 3.906019,0.88168 5.858631,1.32291 0.126244,-1.38603 0.252249,-2.77209 0.377976,-4.15773 0.06325,-1.82678 0.126257,-3.65404 0.188989,-5.48066 2.897648,0.94454 5.795899,1.88962 8.693452,2.83482 0.945152,2.0155 2.016138,4.03148 3.023809,6.04762 1.638247,1.00773 3.276057,2.01561 4.913691,3.02381 2.771965,2.01552 5.543915,4.03148 8.31548,6.04762 -2.330552,3.59045 -4.661447,7.18128 -6.992564,10.77232 -1.385765,2.6458 -2.77156,5.2914 -4.157739,7.9375 3.213447,0.18875 6.425861,0.37771 9.638393,0.56697 5.03956,-1.76402 10.07963,-3.52805 15.11905,-5.29167 3.33884,-0.31522 6.67784,-0.63022 10.01637,-0.94494 0.94512,-2.89783 1.89014,-5.7959 2.83482,-8.69345 0.3782,-3.65364 0.75621,-7.30781 1.13393,-10.96131 0.18923,-3.71674 0.37824,-7.4338 0.56696,-11.1503 -4.66109,0.31469 -9.32315,0.6297 -13.98512,0.94494 -4.34672,-5.29225 -8.69318,-10.5836 -13.04018,-15.875 z"
       inkscape:export-filename="/home/thiago/Documentos/Algoritmos/Algoritmos/grafos/assets/ilhas.png"
       inkscape:export-xdpi="97"
       inkscape:export-ydpi="97"
       transform="translate(30.381297,-62.281658)" />
    <path
       style="fill:#3ab943;fill-opacity:1;stroke:none;stroke-width:0.26458332px;stroke-linecap:butt;stroke-linejoin:miter;stroke-opacity:1"
       d="m 73.674106,239.2009 c -1.921451,1.9213 -3.307363,4.44114 -3.14988,7.33927 0.157483,2.89813 1.858161,6.17352 3.559198,8.03198 1.701036,1.85846 3.401877,2.29942 8.000238,-0.40923 4.598361,-2.70865 12.095695,-8.56792 12.946233,-11.68609 0.850538,-3.11817 -4.945324,-3.49616 -8.473256,-4.34665 -3.527932,-0.85048 -4.787798,-2.17334 -6.646012,-2.17343 -1.858214,-8e-5 -4.31507,1.32284 -6.236521,3.24415 z"
       id="path823"
       inkscape:connector-curvature="0"
       inkscape:path-effect="#path-effect825"
       inkscape:original-d="m 73.138392,238.60268 c -1.385647,2.51957 -2.771561,5.03941 -4.157737,7.55952 1.701369,3.27594 3.40205,6.55132 5.102677,9.82738 1.70121,0.44072 3.40205,0.88168 5.102678,1.32292 7.495984,-5.85827 14.993321,-11.71753 22.48958,-17.5759 -5.795139,-0.37822 -11.591001,-0.75621 -17.3869,-1.13392 -1.259711,-1.32324 -2.519577,-2.6461 -3.779764,-3.96875 -2.456566,1.32264 -4.913423,2.64556 -7.370534,3.96875 z"
       inkscape:export-filename="/home/thiago/Documentos/Algoritmos/Algoritmos/grafos/assets/ilhas.png"
       inkscape:export-xdpi="97"
       inkscape:export-ydpi="97"
       transform="translate(30.381297,-62.281658)" />
    <path
       style="fill:#3ab943;fill-opacity:1;stroke:none;stroke-width:0.26458332px;stroke-linecap:butt;stroke-linejoin:miter;stroke-opacity:1"
       d="m 79.159915,165.48462 c -2.735221,1.59528 -4.268295,4.25064 -4.948179,6.09382 -0.679885,1.84318 -0.496089,2.93509 0.05023,3.3556 0.546318,0.4205 1.459577,0.20006 3.414683,0.7923 1.955105,0.59223 5.00576,2.02222 7.210508,4.16395 2.204749,2.14172 3.590718,5.00816 5.638217,6.70913 2.047498,1.70097 4.756331,2.23643 6.945319,3.79553 2.188988,1.5591 3.858379,4.14194 4.409629,6.961 0.55124,2.81907 -0.0157,5.87415 0.1103,8.00045 0.12599,2.1263 0.94486,3.32311 2.56724,3.62231 1.62238,0.29921 4.04761,-0.29922 6.72476,-1.29136 2.67714,-0.99214 5.60683,-2.37823 7.66178,-3.64602 2.05495,-1.26779 3.26817,-2.44908 4.33899,-3.51991 1.07082,-1.07083 2.01598,-2.04748 2.70797,-3.47692 0.69199,-1.42944 1.1347,-3.3268 1.35515,-5.49995 0.22045,-2.17314 0.22045,-4.63038 -0.2205,-6.58308 -0.44094,-1.95271 -1.32298,-3.40178 -3.32291,-4.53562 -1.99993,-1.13385 -5.11839,-1.95284 -7.78012,-3.26007 -2.66172,-1.30723 -4.86645,-3.10251 -7.5696,-5.20471 -2.70316,-2.1022 -5.8643,-4.48088 -9.061298,-6.05578 -3.196993,-1.5749 -6.409749,-2.33084 -9.984839,-2.44111 -3.575091,-0.11027 -7.512108,0.42516 -10.247328,2.02044 z"
       id="path827"
       inkscape:connector-curvature="0"
       inkscape:path-effect="#path-effect829"
       inkscape:original-d="m 77.957589,164.42485 c -1.532811,2.6551 -3.065886,5.31046 -4.599226,7.96609 0.178946,1.02976 0.357585,2.12254 0.53598,3.18421 0.913892,-0.2208 1.827152,-0.44124 2.740329,-0.66146 2.991559,1.41666 6.047883,2.83456 9.071428,4.25223 1.386124,2.86594 2.77209,5.73238 4.157737,8.59896 2.709094,0.5352 5.417926,1.07067 8.126491,1.6064 1.669659,2.58257 3.339052,5.16541 5.008182,7.74851 -0.56674,3.05527 -1.13366,6.11035 -1.70089,9.16592 0.81929,1.19678 1.63816,2.39359 2.45684,3.59078 2.42573,-0.59876 4.85096,-1.19719 7.27605,-1.79539 2.9292,-1.386 5.85889,-2.77209 8.78794,-4.15774 1.16557,-1.16556 2.39411,-2.33112 3.59077,-3.49628 0.945,-0.97648 1.89015,-1.95314 2.83483,-2.92931 0.40962,-1.88963 0.8822,-3.78003 1.32291,-5.66965 2.7e-4,-2.45671 2.7e-4,-4.91395 0,-7.37053 -0.88158,-1.44902 -1.76362,-2.89809 -2.64583,-4.34673 -3.11788,-0.81917 -6.23634,-1.63816 -9.35491,-2.45684 -2.20473,-1.79576 -4.40946,-3.59104 -6.61459,-5.38617 -3.21257,-2.39414 -6.36233,-4.78796 -9.543892,-7.18154 -3.212576,-0.75623 -6.425332,-1.51217 -9.638395,-2.26786 -3.937222,0.53523 -7.874238,1.07067 -11.811754,1.6064 z"
       sodipodi:nodetypes="cccccccccccccccccccccc"
       inkscape:export-filename="/home/thiago/Documentos/Algoritmos/Algoritmos/grafos/assets/ilhas.png"
       inkscape:export-xdpi="97"
       inkscape:export-ydpi="97"
       transform="translate(30.381297,-62.281658)" />
    <path
       style="fill:#a4825a;fill-opacity:1;stroke:none;stroke-width:0.26458332px;stroke-linecap:butt;stroke-linejoin:miter;stroke-opacity:1"
       d="m 122.54325,197.41874 c -2.15755,2.15765 -5.93685,5.37005 -8.92951,7.37049 -2.99266,2.00044 -5.19708,2.78773 -6.59902,1.1654 -1.40195,-1.62233 -2.00037,-5.65375 -2.45709,-8.74056 -0.45672,-3.08681 -0.7717,-5.22867 -1.37931,-7.05651 -0.60761,-1.82783 -1.50784,-3.34179 -2.39869,-4.34688 -0.890857,-1.00509 -1.772454,-1.50144 -3.227936,-1.95715 -1.455482,-0.4557 -3.484945,-0.87075 -5.035192,-2.18073 -1.550247,-1.30998 -2.612558,-3.49709 -4.581171,-5.57681 -1.968614,-2.07973 -4.780441,-3.98552 -7.032478,-4.48961 -2.252037,-0.50409 -3.921391,0.40933 -4.114804,-0.3748 -0.193414,-0.78413 1.089314,-3.26571 3.230878,-4.85615 2.141563,-1.59044 5.143316,-2.29035 8.312998,-2.37245 3.169683,-0.0821 6.508816,0.45341 10.561928,2.55604 4.053107,2.10264 8.860897,5.80337 12.215467,8.11848 3.35456,2.31512 5.27595,3.26006 7.11857,4.00025 1.84261,0.74019 3.6066,1.27569 4.81913,2.42518 1.21253,1.14949 1.87406,2.91355 2.23631,5.00821 0.36226,2.09466 0.42525,4.51981 0.18909,6.28366 -0.23615,1.76386 -0.77162,2.86629 -2.92917,5.02394 z"
       id="path831"
       inkscape:connector-curvature="0"
       inkscape:path-effect="#path-effect833"
       inkscape:original-d="m 124.16518,196.36383 c -3.7795,3.21254 -7.5588,6.42494 -11.33929,9.6384 -2.20487,0.78728 -4.40928,1.57458 -6.61458,2.36236 -0.59825,-4.03233 -1.19666,-8.06375 -1.79539,-12.09524 -0.31472,-2.14213 -0.6297,-4.28399 -0.94494,-6.42559 -0.89996,-1.51422 -1.80019,-3.02818 -2.70068,-4.54187 -0.881349,-0.49662 -1.762949,-0.99296 -2.644842,-1.48906 -2.029184,-0.41531 -4.058646,-0.83036 -6.088257,-1.24512 -1.07063,-2.20504 -2.13294,-4.39215 -3.212798,-6.61458 -2.857478,-1.93718 -5.669306,-3.84297 -8.504465,-5.76413 -1.669172,0.9132 -3.338525,1.82662 -5.008182,2.74032 1.282982,-2.48182 2.565707,-4.9634 3.848158,-7.44469 3.000531,-0.69983 6.002284,-1.39974 9.003032,-2.09921 3.338709,0.53515 6.677843,1.07067 10.016369,1.6064 4.756155,3.68477 9.575665,7.37028 14.363095,11.05581 1.92163,0.94467 3.84302,1.88961 5.76414,2.83482 1.76405,0.53517 3.52804,1.07067 5.29166,1.6064 0.66166,1.76345 1.32318,3.52751 1.98438,5.29166 0.0633,2.42528 0.12626,4.85043 0.18899,7.27604 -0.5352,1.10216 -1.07067,2.20459 -1.6064,3.30728 z"
       sodipodi:nodetypes="cccccccccccccccccccc"
       inkscape:export-filename="/home/thiago/Documentos/Algoritmos/Algoritmos/grafos/assets/ilhas.png"
       inkscape:export-xdpi="97"
       inkscape:export-ydpi="97"
       transform="translate(30.381297,-62.281658)" />
    <path
       style="fill:#3ab943;fill-opacity:1;stroke:none;stroke-width:0.26458332px;stroke-linecap:butt;stroke-linejoin:miter;stroke-opacity:1"
       d="m 47.37299,220.9007 c -0.346504,-1.26001 -1.03946,-3.77985 -2.000109,-6.31532 -0.960648,-2.53547 -2.189157,-5.08699 -3.323061,-7.32329 -1.133903,-2.23631 -2.173382,-4.15777 -3.212617,-5.0397 -1.039235,-0.88192 -2.078722,-0.72442 -2.771844,0.17337 -0.693121,0.8978 -1.039501,2.53523 -1.952967,3.90554 -0.913467,1.37031 -2.393593,2.47253 -3.889929,3.93734 -1.496337,1.46481 -3.00794,3.29133 -3.98449,5.03959 -0.97655,1.74825 -1.417452,3.41738 -1.622231,5.21298 -0.20478,1.79559 -0.173289,3.71661 0.362271,5.10272 0.53556,1.3861 1.690365,2.33091 4.572504,2.53563 2.882139,0.20472 7.549199,-0.2835 10.685832,-0.88987 3.136634,-0.60636 4.743132,-1.33086 5.735182,-2.19704 0.99205,-0.86618 1.370102,-1.87432 1.55903,-2.37813 0.188928,-0.50381 0.188932,-0.50381 -0.157571,-1.76382 z"
       id="path839"
       inkscape:connector-curvature="0"
       inkscape:path-effect="#path-effect841"
       inkscape:original-d="m 47.719493,222.16071 c -0.69269,-2.52011 -1.385647,-5.03995 -2.078869,-7.55952 -1.228071,-2.55143 -2.456579,-5.10295 -3.685267,-7.65402 -1.039125,-1.92156 -2.078604,-3.84302 -3.118305,-5.76414 -1.039117,0.15722 -2.078604,0.31472 -3.118302,0.47247 -0.346314,1.6381 -0.692693,3.27553 -1.039435,4.91369 -1.48042,1.10238 -2.960549,2.2046 -4.441221,3.3073 -1.511943,1.82698 -3.023545,3.6535 -4.535713,5.48065 -0.440777,1.66939 -0.88168,3.33852 -1.322917,5.00819 0.03177,1.92147 0.06326,3.84249 0.09449,5.76413 1.03984,0.8503 2.194663,1.79509 3.291597,2.69304 4.66708,-0.48846 9.33414,-0.97668 14.000813,-1.46462 1.606566,-0.72467 3.213063,-1.44917 4.819197,-2.17336 0.378167,-1.008 0.756216,-2.01614 1.133928,-3.02381 z"
       inkscape:export-filename="/home/thiago/Documentos/Algoritmos/Algoritmos/grafos/assets/ilhas.png"
       inkscape:export-xdpi="97"
       inkscape:export-ydpi="97"
       transform="translate(30.381297,-62.281658)" />
    <path
       style="fill:#75614b;fill-opacity:1;stroke:none;stroke-width:0.26458332px;stroke-linecap:butt;stroke-linejoin:miter;stroke-opacity:1"
       d="m 27.765555,228.8225 c 1.149787,0.89779 2.945177,1.46475 4.835031,1.62221 1.889853,0.15745 3.874409,-0.0945 5.653929,-0.31502 1.77952,-0.22047 3.354657,-0.40949 4.77191,-1.40164 1.417254,-0.99216 2.677409,-2.78788 3.543534,-4.17371 0.866126,-1.38584 1.338678,-2.36245 0.708947,-3.48025 -0.629731,-1.11779 -2.36269,-2.37813 -4.331363,-4.03181 -1.968673,-1.65369 -4.173478,-3.701 -6.945156,-3.85858 -2.771678,-0.15757 -6.110452,1.57481 -7.24451,3.27584 -1.134058,1.70102 -0.06323,3.37025 -0.220591,4.86634 -0.157362,1.49608 -1.543216,2.81895 -1.984302,4.0948 -0.441085,1.27585 0.06278,2.50403 1.212571,3.40182 z"
       id="path835"
       inkscape:connector-curvature="0"
       inkscape:path-effect="#path-effect837"
       inkscape:original-d="m 27.119791,229.15327 c 1.795651,0.5667 3.591039,1.13367 5.38616,1.70089 1.98446,-0.25222 3.969015,-0.50423 5.953125,-0.75595 1.574932,-0.18922 3.150068,-0.37824 4.724704,-0.56696 1.259951,-1.79532 2.520106,-3.59104 3.779761,-5.38616 0.472654,-0.97654 0.945206,-1.95315 1.41741,-2.92932 -1.73156,-1.25977 -3.464515,-2.52011 -5.197171,-3.77976 -2.204656,-2.04769 -4.409458,-4.09501 -6.614583,-6.14211 -3.338541,1.73213 -6.677316,3.46451 -10.016371,5.19717 1.071301,1.66929 2.14213,3.33852 3.212799,5.00818 -1.385705,1.32271 -2.771561,2.64557 -4.157738,3.96875 0.504331,1.2284 1.008201,2.45658 1.511904,3.68527 z"
       inkscape:export-filename="/home/thiago/Documentos/Algoritmos/Algoritmos/grafos/assets/ilhas.png"
       inkscape:export-xdpi="97"
       inkscape:export-ydpi="97"
       transform="translate(30.381297,-62.281658)" />
    <path
       style="fill:#a4825a;fill-opacity:1;stroke:none;stroke-width:0.26458332px;stroke-linecap:butt;stroke-linejoin:miter;stroke-opacity:1"
       d="m 81.851293,244.08063 c -1.87061,0.0891 -3.741498,0.17817 -4.665944,0.82404 -0.924446,0.64586 -0.902176,1.84839 -0.367505,2.86202 0.534672,1.01363 1.581254,1.83754 1.70385,2.85075 0.122595,1.01321 -0.679239,2.21596 -0.177846,2.79519 0.501392,0.57923 2.305002,0.5347 3.585532,-0.59005 1.280529,-1.12475 2.037908,-3.33006 2.260575,-4.9558 0.222668,-1.62574 -0.08919,-2.6727 -0.534437,-3.19601 -0.445244,-0.52332 -1.024422,-0.52332 -1.603772,-0.52332"
       id="path843"
       inkscape:connector-curvature="0"
       inkscape:path-effect="#path-effect845"
       inkscape:original-d="m 81.851293,244.08063 c -1.870623,0.0888 -3.74151,0.17792 -5.612662,0.26727 0.02254,1.20263 0.04481,2.40516 0.06682,3.60814 1.047297,0.82399 2.093875,1.6479 3.140416,2.47224 -0.801516,1.20241 -1.603351,2.40516 -2.405425,3.60814 1.804792,-0.0448 3.608403,-0.0893 5.412208,-0.13363 0.757415,-2.20491 1.514793,-4.41022 2.271792,-6.61493 -0.311505,-1.04691 -0.623366,-2.09387 -0.935445,-3.14041 -0.578723,-2.7e-4 -1.157901,-2.7e-4 -1.737251,0"
       inkscape:export-filename="/home/thiago/Documentos/Algoritmos/Algoritmos/grafos/assets/ilhas.png"
       inkscape:export-xdpi="97"
       inkscape:export-ydpi="97"
       transform="translate(30.381297,-62.281658)" />
    <path
       style="fill:#ff3e07;fill-opacity:1;stroke:none;stroke-width:0.26458332px;stroke-linecap:butt;stroke-linejoin:miter;stroke-opacity:1"
       d="m 35.600792,222.14486 c -0.747943,-0.12611 -1.377903,0.34636 -1.606396,0.85836 -0.228493,0.512 -0.05534,1.06296 -0.08677,1.59842 -0.03143,0.53547 -0.267601,1.05503 -0.09422,1.50418 0.173377,0.44914 0.755735,0.82689 1.393657,0.8268 0.637921,-9e-5 1.330955,-0.37811 2.102461,-0.8111 0.771507,-0.43299 1.622339,-0.92143 1.76407,-1.33073 0.141732,-0.4093 -0.425441,-0.74015 -1.142112,-1.26781 -0.716671,-0.52766 -1.582743,-1.252 -2.330686,-1.37812 z"
       id="path855"
       inkscape:connector-curvature="0"
       inkscape:path-effect="#path-effect857"
       inkscape:original-d="m 35.482514,221.5465 c -0.629695,0.47221 -1.259655,0.94468 -1.889879,1.41741 0.173585,0.55121 0.346741,1.10217 0.519715,1.65365 -0.23604,0.5196 -0.472204,1.03917 -0.708705,1.55915 0.583335,0.37794 1.165691,0.75569 1.74814,1.13393 0.693144,-0.3782 1.386178,-0.75622 2.07887,-1.13393 0.850324,-0.48826 1.701157,-0.9767 2.551338,-1.46466 -0.566489,-0.33087 -1.133663,-0.66172 -1.700893,-0.99219 -0.866055,-0.72482 -1.732126,-1.44917 -2.598586,-2.17336 z"
       inkscape:export-filename="/home/thiago/Documentos/Algoritmos/Algoritmos/grafos/assets/ilhas.png"
       inkscape:export-xdpi="97"
       inkscape:export-ydpi="97"
       transform="translate(30.381297,-62.281658)" />
    <path
       style="fill:#ff8601;fill-opacity:1;stroke:none;stroke-width:0.26458332px;stroke-linecap:butt;stroke-linejoin:miter;stroke-opacity:1"
       d="m 35.277898,223.43625 c -0.637861,0.23605 -0.889846,1.0865 -0.901686,1.69302 -0.01184,0.60653 0.21644,0.96862 0.626151,1.05521 0.409712,0.0866 1.000185,-0.10237 1.606356,-0.31887 0.606172,-0.21649 1.228591,-0.46073 1.456807,-0.78348 0.228215,-0.32276 0.06276,-0.72457 -0.53149,-1.1142 -0.594253,-0.38963 -1.618277,-0.76773 -2.256138,-0.53168 z"
       id="path871"
       inkscape:connector-curvature="0"
       inkscape:path-effect="#path-effect873"
       inkscape:original-d="m 34.891927,222.82217 c -0.25172,0.85018 -0.503704,1.70063 -0.755952,2.55134 0.228709,0.36209 0.456986,0.72419 0.68508,1.08668 0.590968,-0.18929 1.181442,-0.37824 1.771764,-0.56697 0.622017,-0.24424 1.244436,-0.48848 1.866257,-0.73232 -0.165015,-0.40166 -0.330464,-0.80347 -0.496094,-1.2048 -1.02308,-0.37812 -2.047105,-0.75622 -3.071055,-1.13393 z"
       inkscape:export-filename="/home/thiago/Documentos/Algoritmos/Algoritmos/grafos/assets/ilhas.png"
       inkscape:export-xdpi="97"
       inkscape:export-ydpi="97"
       transform="translate(30.381297,-62.281658)" />
    <g
       id="g902"
       style="stroke:#ff3e07;stroke-width:0.5;stroke-miterlimit:4;stroke-dasharray:none;stroke-opacity:1"
       inkscape:export-filename="/home/thiago/Documentos/Algoritmos/Algoritmos/grafos/assets/ilhas.png"
       inkscape:export-xdpi="97"
       inkscape:export-ydpi="97"
       transform="translate(30.381297,-62.281658)">
      <path
         inkscape:connector-curvature="0"
         id="path883"
         d="m 37.517959,223.16679 c 0.08909,0 0.178181,0 0.267271,0 0.02228,0 0.04569,0.007 0.06681,0 0.01495,-0.005 0.02032,-0.0247 0.03341,-0.0334 0.02072,-0.0138 0.0461,-0.0196 0.06682,-0.0334 0.0131,-0.009 0.02228,-0.0223 0.03341,-0.0334 0.02228,-0.0223 0.04454,-0.0445 0.06682,-0.0668 0.05959,-0.0596 0.166166,-0.15672 0.200451,-0.23386 0.02307,-0.0519 0.01035,-0.11516 0.03341,-0.16705 0.02262,-0.0509 0.07719,-0.0829 0.100227,-0.13363 0.03355,-0.0738 0.03563,-0.15903 0.06682,-0.23386 0.09761,-0.23427 0.08807,-0.0984 0.200451,-0.30068 0.02913,-0.0524 0.03769,-0.11462 0.06682,-0.16705 0.02704,-0.0487 0.07761,-0.0828 0.100227,-0.13363 0.117502,-0.26438 -0.07112,-0.0946 0.03341,-0.43431 0.02098,-0.0682 0.107151,-0.10084 0.133633,-0.16705 0.02069,-0.0517 -0.005,-0.11159 0,-0.16704 0.0061,-0.0675 0.0091,-0.13723 0.03341,-0.20045 0.03223,-0.0838 0.0991,-0.15098 0.133636,-0.23386 0.04651,-0.11163 0.03341,-0.25256 0.03341,-0.3675 0,-0.0445 -0.0097,-0.0901 0,-0.13363 0.01302,-0.0585 0.05381,-0.1085 0.06682,-0.16705 0.0097,-0.0435 0,-0.0891 0,-0.13363 0,-0.13363 0,-0.26727 0,-0.40091 0,-0.14477 0,-0.28954 0,-0.43431 0,-0.0111 0.0035,-0.0228 0,-0.0334 -0.01897,-0.0569 -0.04959,-0.1096 -0.06682,-0.16704 -0.11506,-0.38353 0.01077,-0.002 -0.03341,-0.26727 -0.05137,-0.3082 -0.0079,0.12277 -0.100227,-0.20045 -0.01818,-0.0636 0.01529,-0.1727 0,-0.23386 -0.006,-0.0242 -0.02553,-0.0432 -0.03341,-0.0668 -0.006,-0.0181 0,-0.12225 0,-0.13363 0,-0.0445 0,-0.0891 0,-0.13364 0,-0.0111 0,-0.0223 0,-0.0334 0,-0.0111 -0.005,-0.0234 0,-0.0334 0.01408,-0.0282 0.04935,-0.0406 0.06682,-0.0668 0.01381,-0.0207 0.0158,-0.0492 0.03341,-0.0668 0.07299,-0.073 0.0702,-0.0668 0.133636,-0.0668 0.01114,0 0.02344,0.005 0.03341,0 0.01408,-0.007 0.01812,-0.0296 0.03341,-0.0334 0.03241,-0.008 0.06682,0 0.100227,0 0.07795,0 0.155908,0 0.23386,0 0.133635,0 0.267271,0 0.400904,0"
         style="fill:none;stroke:#ff3e07;stroke-width:0.5;stroke-linecap:round;stroke-linejoin:miter;stroke-miterlimit:4;stroke-dasharray:none;stroke-opacity:1" />
      <path
         inkscape:connector-curvature="0"
         id="path885"
         d="m 34.143682,223.16679 c -0.05568,-0.0557 -0.111363,-0.11136 -0.167044,-0.16704 -0.01114,-0.0223 -0.01847,-0.0469 -0.03341,-0.0668 -0.01889,-0.0252 -0.04455,-0.0445 -0.06682,-0.0668 -0.01114,-0.0111 -0.02756,-0.0188 -0.03341,-0.0334 -0.01707,-0.0426 -0.02439,-0.0886 -0.03341,-0.13363 -0.0021,-0.0109 0.005,-0.0234 0,-0.0334 -0.01482,-0.0296 -0.07995,-0.0698 -0.100227,-0.10023 -0.01381,-0.0207 -0.01961,-0.0461 -0.03341,-0.0668 -0.0087,-0.0131 -0.02635,-0.0193 -0.03341,-0.0334 -0.0099,-0.0199 0.0099,-0.0469 0,-0.0668 -0.007,-0.0141 -0.02228,-0.0223 -0.03341,-0.0334 -0.04454,-0.0445 -0.08909,-0.0891 -0.133633,-0.13363 -0.01114,-0.0111 -0.02228,-0.0223 -0.03341,-0.0334 -0.01114,-0.0111 -0.02638,-0.0193 -0.03341,-0.0334 -0.0099,-0.0199 0.0099,-0.0469 0,-0.0668 -0.02005,-0.0401 -0.08018,-0.0601 -0.100227,-0.10022 -0.0099,-0.0199 0.0099,-0.0469 0,-0.0668 -0.0089,-0.0178 -0.08264,-0.0826 -0.100227,-0.10023 -0.01114,-0.0111 -0.02228,-0.0223 -0.03341,-0.0334 -0.01114,-0.0111 -0.01931,-0.0264 -0.03341,-0.0334 -0.02365,-0.10186 -0.09257,-0.0129 -0.133636,-0.0334 -0.01408,-0.007 -0.02029,-0.0247 -0.03341,-0.0334 -0.168775,-0.11252 -7.93e-4,-2.6e-4 -0.100226,-0.0334 -0.07501,-0.025 -0.0908,-0.0621 -0.167042,-0.10023 -0.0099,-0.005 -0.02344,0.005 -0.03341,0 -0.01408,-0.007 -0.01847,-0.0284 -0.03341,-0.0334 -0.02114,-0.007 -0.04454,0 -0.06682,0 -0.01114,0 -0.02344,0.005 -0.03341,0 -0.01408,-0.007 -0.02228,-0.0223 -0.03341,-0.0334 -0.02228,0 -0.04569,0.007 -0.06682,0 -0.01495,-0.005 -0.01847,-0.0284 -0.03341,-0.0334 -0.02114,-0.007 -0.04569,0.007 -0.06682,0 -0.01495,-0.005 -0.01847,-0.0284 -0.03341,-0.0334 -0.02998,-0.0211 -0.06853,0.0105 -0.100227,0 -0.07501,-0.025 -0.0908,-0.0621 -0.167042,-0.10023 -0.0099,-0.005 -0.02283,0.004 -0.03341,0 -0.02363,-0.008 -0.04455,-0.0223 -0.06682,-0.0334 -0.02228,-0.0111 -0.04547,-0.0206 -0.06682,-0.0334 -0.03443,-0.0207 -0.06431,-0.0489 -0.100226,-0.0668 -0.0099,-0.005 -0.02283,0.004 -0.03341,0 -0.121116,-0.0404 -0.02379,-0.0159 -0.100224,-0.0668 0.0038,-0.0633 -0.07796,-0.0223 -0.100227,-0.0334 -0.01408,-0.007 -0.0199,-0.0253 -0.03341,-0.0334 -0.0033,-0.002 -0.1441,-0.0543 -0.167042,-0.10022 -0.005,-0.01 0.005,-0.0234 0,-0.0334 -0.01069,-0.0214 -0.05612,-0.0454 -0.06682,-0.0668 -0.005,-0.01 0.005,-0.0234 0,-0.0334 -0.007,-0.0141 -0.02635,-0.0193 -0.03341,-0.0334 -0.01013,-0.0203 0.01013,-0.18016 0,-0.20045 -0.007,-0.0141 -0.02638,-0.0193 -0.03341,-0.0334 -0.0091,-0.0183 0.0057,-0.0775 0,-0.10022 -0.0085,-0.0342 -0.01765,-0.0687 -0.03341,-0.10023 -0.007,-0.0141 -0.02843,-0.0185 -0.03341,-0.0334 -0.007,-0.0211 0,-0.0445 0,-0.0668 0,-0.0111 0.0067,-0.0245 0,-0.0334 -0.02835,-0.0378 -0.07071,-0.0633 -0.100227,-0.10023 -0.01556,-0.0195 -0.02228,-0.0445 -0.03341,-0.0668 -0.01114,-0.0223 -0.02553,-0.0432 -0.03341,-0.0668 -0.0035,-0.0106 0.005,-0.0234 0,-0.0334 -0.007,-0.0141 -0.02635,-0.0193 -0.03341,-0.0334 -0.005,-0.01 0.0062,-0.0241 0,-0.0334 -0.02569,-0.0386 -0.07453,-0.0617 -0.100227,-0.10023 -0.01381,-0.0207 -0.0196,-0.0461 -0.03341,-0.0668 -0.0087,-0.0131 -0.02228,-0.0223 -0.03341,-0.0334 -0.03341,-0.0334 -0.06682,-0.0668 -0.100227,-0.10023 -0.02228,-0.0223 -0.04061,-0.0494 -0.06682,-0.0668 -0.168775,-0.11251 -7.93e-4,-2.6e-4 -0.100226,-0.0334 -0.02363,-0.008 -0.04319,-0.0255 -0.06682,-0.0334 -0.01056,-0.004 -0.02344,0.005 -0.03341,0 -0.01408,-0.007 -0.01931,-0.0264 -0.03341,-0.0334 -0.0099,-0.005 -0.02344,0.005 -0.03341,0 -0.01783,-0.009 -0.08264,-0.0826 -0.100224,-0.10023 -0.02609,-0.0261 -0.08101,-0.0714 -0.100227,-0.10023 -0.01114,-0.0223 -0.02228,-0.0445 -0.03341,-0.0668 0,-0.0111 0.005,-0.0234 0,-0.0334 -0.01482,-0.0296 -0.07995,-0.0698 -0.100227,-0.10023 -0.03839,-0.0576 -0.03341,-0.0505 -0.03341,-0.10022 0,-0.0111 0.005,-0.0234 0,-0.0334 -0.01408,-0.0282 -0.05273,-0.0386 -0.06681,-0.0668 -0.01058,-0.0212 0.01085,-0.14534 0,-0.16704 -0.007,-0.0141 -0.02843,-0.0185 -0.03341,-0.0334 -0.0076,-0.0227 0.0089,-0.14933 0,-0.16704 -0.007,-0.0141 -0.02228,-0.0223 -0.03341,-0.0334"
         style="fill:none;stroke:#ff3e07;stroke-width:0.5;stroke-linecap:butt;stroke-linejoin:miter;stroke-miterlimit:4;stroke-dasharray:none;stroke-opacity:1" />
      <path
         inkscape:connector-curvature="0"
         id="path891"
         d="m 38.887717,224.77041 c 0.177961,0.0356 0.110257,0.0334 0.200451,0.0334 0.01114,0 0.02344,-0.005 0.03341,0 0.01408,0.007 0.01847,0.0284 0.03341,0.0334 0.02114,0.007 0.04569,-0.007 0.06682,0 0.01495,0.005 0.01931,0.0264 0.03341,0.0334 0.0099,0.005 0.02283,-0.004 0.03341,0 0.02363,0.008 0.0432,0.0255 0.06682,0.0334 0.02813,0.009 0.147153,-0.01 0.167045,0 0.01408,0.007 0.01847,0.0284 0.03341,0.0334 0.05011,0.0167 0.05847,-0.008 0.100225,0 0.04502,0.009 0.08861,0.0244 0.133635,0.0334 0.01093,0.002 0.02283,-0.004 0.03341,0 0.02363,0.008 0.04319,0.0255 0.06682,0.0334 0.01884,0.006 0.07827,0 0.100224,0 0.06682,0 0.133636,0 0.200454,0 0.100227,0 0.200451,0 0.300678,0 0.01746,0 0.124851,0.004 0.133636,0 0.01407,-0.007 0.01931,-0.0264 0.03341,-0.0334 0.02215,-0.0111 0.105633,0.009 0.133634,0 0.02363,-0.008 0.04319,-0.0255 0.06682,-0.0334 0.01056,-0.004 0.02344,0.005 0.03341,0 0.01408,-0.007 0.01931,-0.0264 0.03341,-0.0334 0.01992,-0.01 0.04569,0.007 0.06682,0 0.06068,-0.0202 0.062,-0.0286 0.100224,-0.0668 0.01114,-0.0111 0.01931,-0.0264 0.03341,-0.0334 0.01,-0.005 0.02344,0.005 0.03341,0 0.01408,-0.007 0.02228,-0.0223 0.03341,-0.0334 0.03341,-0.0334 0.06682,-0.0668 0.100227,-0.10023 0.01114,-0.0111 0.02029,-0.0247 0.03341,-0.0334 0.01683,-0.0736 0.06873,-0.0177 0.100224,-0.0334 0.04009,-0.02 0.06014,-0.0802 0.100227,-0.10022 0.01,-0.005 0.02344,0.005 0.03341,0 0.04009,-0.0201 0.06014,-0.0802 0.100227,-0.10023 0.09831,-0.0492 -0.04399,0.0774 0.06682,-0.0334 0.06682,-0.0668 0.133634,-0.13363 0.200451,-0.20045 0.0176,-0.0176 0.08238,-0.0913 0.100227,-0.10022 0.0099,-0.005 0.02344,0.005 0.03341,0 0.04009,-0.0201 0.06013,-0.0802 0.100224,-0.10023 0.0099,-0.005 0.02344,0.005 0.03341,0 0.02817,-0.0141 0.03865,-0.0527 0.06682,-0.0668 0.01,-0.005 0.02228,0 0.03341,0 0.01114,-0.0111 0.01931,-0.0264 0.03341,-0.0334 0.0099,-0.005 0.02344,0.005 0.03341,0 0.02961,-0.0148 0.06981,-0.0799 0.100227,-0.10022 0.02072,-0.0138 0.04319,-0.0255 0.06682,-0.0334 0.01056,-0.004 0.02416,0.006 0.03341,0 0.02622,-0.0175 0.04454,-0.0445 0.06682,-0.0668 0.01114,-0.0111 0.01931,-0.0264 0.03341,-0.0334 0.01,-0.005 0.02344,0.005 0.03341,0 0.04009,-0.02 0.06013,-0.0802 0.100227,-0.10023 0.0099,-0.005 0.02344,0.005 0.03341,0 0.01548,-0.008 0.113986,-0.11398 0.133634,-0.13363 0.110802,-0.1108 -0.0315,0.0157 0.06682,-0.0334 0.01408,-0.007 0.01932,-0.0264 0.03341,-0.0334 0.01,-0.005 0.02344,0.005 0.03341,0 0.03287,-0.0164 0.100759,-0.11719 0.133633,-0.13363 0.01992,-0.01 0.04569,0.007 0.06682,0 0.02363,-0.008 0.0432,-0.0255 0.06682,-0.0334 0.01056,-0.004 0.02344,0.005 0.03341,0 0.01408,-0.007 0.01931,-0.0263 0.03341,-0.0334 0.01,-0.005 0.02344,0.005 0.03341,0 0.01408,-0.007 0.01847,-0.0284 0.03341,-0.0334 0.02273,-0.008 0.149328,0.009 0.167042,0 0.01408,-0.007 0.01931,-0.0264 0.03341,-0.0334 0.0099,-0.005 0.02344,0.005 0.03341,0 0.152897,-0.0765 -0.141767,0.0138 0.100227,-0.0668 0.01056,-0.004 0.02283,0.004 0.03341,0 0.02363,-0.008 0.04319,-0.0255 0.06681,-0.0334 0.01056,-0.004 0.02344,0.005 0.03341,0 0.01408,-0.007 0.01931,-0.0264 0.03341,-0.0334 0.01,-0.005 0.02344,0.005 0.03341,0 0.01407,-0.007 0.01847,-0.0284 0.03341,-0.0334 0.04226,-0.0141 0.09138,0.0141 0.133635,0 0.01495,-0.005 0.02228,-0.0223 0.03341,-0.0334 0.02228,-0.0223 0.04455,-0.0445 0.06682,-0.0668 0.01114,-0.0111 0.01931,-0.0264 0.03341,-0.0334 0.0099,-0.005 0.02283,0.004 0.03341,0 0.115168,-0.0384 0.02474,-0.0334 0.100227,-0.0334"
         style="fill:none;stroke:#ff3e07;stroke-width:0.5;stroke-linecap:butt;stroke-linejoin:miter;stroke-miterlimit:4;stroke-dasharray:none;stroke-opacity:1" />
      <path
         inkscape:connector-curvature="0"
         id="path893"
         d="m 41.32658,224.63678 c 0.222716,-0.0891 0.443987,-0.18188 0.668144,-0.26728 0.02082,-0.008 0.04455,0 0.06682,0 0.05568,0 0.111361,0 0.167042,0 0.167045,0 0.334087,0 0.501132,0 0.08909,0 0.178178,0 0.267269,0 0.01505,0 0.09006,-0.005 0.100226,0 0.01408,0.007 0.01931,0.0264 0.03341,0.0334 0.01992,0.01 0.04689,-0.01 0.06682,0 0.110802,0.1108 -0.0315,-0.0157 0.06681,0.0334 0.04009,0.0201 0.06014,0.0802 0.100227,0.10023 0.0099,0.005 0.02344,-0.005 0.03341,0 0.04009,0.02 0.06014,0.0802 0.100227,0.10022 0.0099,0.005 0.02344,-0.005 0.03341,0 0.01408,0.007 0.02228,0.0223 0.03341,0.0334 0.01114,0.0111 0.02228,0.0223 0.03341,0.0334 0.04454,0.0445 0.08909,0.0891 0.133636,0.13364 0.0176,0.0176 0.08238,0.0913 0.100227,0.10022 0.0099,0.005 0.02416,-0.006 0.03341,0 0.03301,0.022 0.129788,0.12979 0.167042,0.16704 0.06682,0.0668 0.133635,0.13364 0.200453,0.20046 0.01114,0.0111 0.02228,0.0223 0.03341,0.0334 0.01114,0.0111 0.01931,0.0264 0.03341,0.0334 0.0099,0.005 0.02344,-0.005 0.03341,0 0.0713,0.0357 -0.0045,0.0312 0.06682,0.0668 0.02101,0.0105 0.112639,-0.0105 0.133636,0 0.01408,0.007 0.01847,0.0284 0.03341,0.0334 0.04149,0.0138 0.123116,-0.011 0.167042,0 0.225033,0.0563 5.29e-4,5.3e-4 0.06682,0.0668 0.03839,0.0384 0.05908,0.0334 0.100227,0.0334"
         style="fill:none;stroke:#ff3e07;stroke-width:0.5;stroke-linecap:butt;stroke-linejoin:miter;stroke-miterlimit:4;stroke-dasharray:none;stroke-opacity:1" />
      <path
         inkscape:connector-curvature="0"
         id="path895"
         d="m 34.310724,226.54107 c -0.0026,0.0643 -0.223676,0.0189 -0.267268,0.0334 -0.02363,0.008 -0.04319,0.0255 -0.06682,0.0334 -0.01056,0.004 -0.02228,0 -0.03341,0 -0.04973,0 -0.04264,-0.005 -0.100224,0.0334 -0.03277,0.0218 -0.05523,0.0654 -0.06682,0.10023 -0.0035,0.0106 0.005,0.0234 0,0.0334 -0.01781,0.0356 -0.04901,0.0312 -0.06682,0.0668 -0.005,0.01 0.0067,0.0245 0,0.0334 -0.03545,0.0473 -0.147558,0.14756 -0.200451,0.20046 -0.03341,0.0334 -0.06682,0.0668 -0.100227,0.10022 -0.02228,0.0223 -0.04061,0.0494 -0.06682,0.0668 -0.02072,0.0138 -0.0461,0.0196 -0.06682,0.0334 -0.04454,0.0334 -0.08909,0.0668 -0.133633,0.10023 -0.02228,0.0111 -0.0461,0.0196 -0.06682,0.0334 -0.02622,0.0175 -0.04454,0.0445 -0.06682,0.0668 -0.04455,0.0446 -0.08909,0.0891 -0.133635,0.13364 -0.01114,0.0111 -0.02228,0.0223 -0.03341,0.0334 -0.01114,0.0111 -0.01931,0.0264 -0.03341,0.0334 -0.0099,0.005 -0.0226,-0.003 -0.03341,0 -0.03417,0.009 -0.06606,0.0249 -0.100227,0.0334 -0.02162,0.005 -0.0469,-0.01 -0.06682,0 -0.01408,0.007 -0.01931,0.0264 -0.03341,0.0334 -0.0099,0.005 -0.02228,0 -0.03341,0 -0.01114,0 -0.02228,0 -0.03341,0 -0.02389,0 -0.183351,-0.006 -0.200451,0 -0.01495,0.005 -0.01931,0.0264 -0.03341,0.0334 -0.0099,0.005 -0.02228,0 -0.03341,0 -0.03237,0 -0.18053,-0.007 -0.200451,0 -0.02363,0.008 -0.0432,0.0255 -0.06682,0.0334 -0.02114,0.007 -0.04454,0 -0.06682,0 -0.07795,0 -0.155908,0 -0.233859,0 -0.05568,0 -0.111364,0 -0.167045,0 -0.02228,0 -0.04569,0.007 -0.06682,0 -0.06068,-0.0202 -0.062,-0.0286 -0.100224,-0.0668 -0.01114,-0.0111 -0.01931,-0.0263 -0.03341,-0.0334 -0.0315,-0.0157 -0.06873,-0.0177 -0.100227,-0.0334 -0.02817,-0.0141 -0.04222,-0.0471 -0.06682,-0.0668 -0.04348,-0.0348 -0.09015,-0.0654 -0.133633,-0.10023 -0.02606,-0.0208 -0.07462,-0.0874 -0.100227,-0.10023 -0.01992,-0.01 -0.0469,0.01 -0.06682,0 -0.01407,-0.007 -0.02228,-0.0223 -0.03341,-0.0334 -0.01114,-0.0111 -0.02228,-0.0223 -0.03341,-0.0334"
         style="fill:none;stroke:#ff3e07;stroke-width:0.5;stroke-linecap:butt;stroke-linejoin:miter;stroke-miterlimit:4;stroke-dasharray:none;stroke-opacity:1" />
    </g>
    <path
       style="fill:#645442;fill-opacity:1;stroke:none;stroke-width:0.26458332px;stroke-linecap:butt;stroke-linejoin:miter;stroke-opacity:1"
       d="m 33.912741,230.2326 c 0.236782,-0.21728 0.710076,-0.65159 1.069095,-1.09694 0.35902,-0.44535 0.604158,-0.9022 1.06615,-1.23889 0.461991,-0.33669 1.141773,-0.55399 1.6595,-0.8324 0.517727,-0.2784 0.87425,-0.61822 1.475241,-0.67105 0.600991,-0.0528 1.447986,0.18121 2.196877,0.28976 0.748891,0.10856 1.400496,0.0919 1.859715,0.16145 0.459219,0.0696 0.726597,0.22558 0.885232,0.32855 0.158636,0.10297 0.2088,0.15313 0.09478,0.32282 -0.114024,0.16968 -0.392431,0.45922 -1.024843,0.83813 -0.632411,0.37891 -1.617048,0.8462 -3.168124,1.21936 -1.551075,0.37316 -3.666273,0.65148 -4.81891,0.78514 -1.152636,0.13366 -1.341923,0.12253 -1.436706,0.11695 -0.09478,-0.006 -0.09478,-0.006 0.141997,-0.22288 z"
       id="path904"
       inkscape:connector-curvature="0"
       inkscape:path-effect="#path-effect906"
       inkscape:original-d="m 33.67596,230.44988 c 0.473554,-0.43457 0.946843,-0.86889 1.41987,-1.30293 0.245118,-0.45659 0.490257,-0.91344 0.734992,-1.36976 0.679103,-0.21727 1.358884,-0.43458 2.037929,-0.65147 0.356457,-0.33976 0.712983,-0.67957 1.069078,-1.01897 0.845976,0.23342 1.692971,0.46746 2.539061,0.70159 0.651597,-0.017 1.303202,-0.0337 1.954408,-0.0501 0.267422,0.15558 0.534802,0.31155 0.801809,0.46773 0.05036,0.0498 0.100489,0.1 0.150339,0.15034 -0.27814,0.28927 -0.556548,0.57881 -0.835218,0.86862 -0.986211,0.46789 -1.970847,0.93518 -2.956668,1.40317 -2.116305,0.27823 -4.231503,0.55654 -6.347651,0.83521 -0.189079,-0.0114 -0.378367,-0.0225 -0.567949,-0.0334 z"
       inkscape:export-filename="/home/thiago/Documentos/Algoritmos/Algoritmos/grafos/assets/ilhas.png"
       inkscape:export-xdpi="97"
       inkscape:export-ydpi="97"
       transform="translate(30.381297,-62.281658)" />
    <path
       style="fill:#645442;fill-opacity:1;stroke:none;stroke-width:0.26458332px;stroke-linecap:butt;stroke-linejoin:miter;stroke-opacity:1"
       d="m 26.437435,225.97574 c -0.0055,0.036 -0.01668,0.10845 0.01684,0.28727 0.03352,0.17883 0.111153,0.46163 0.53474,0.5619 0.423586,0.10027 1.191506,0.0168 1.837308,-0.0528 0.645801,-0.0696 1.169403,-0.12529 1.692615,-0.0947 0.523212,0.0306 1.046903,0.14762 1.436597,-0.0752 0.389694,-0.22279 0.645924,-0.78539 0.63477,-1.32523 -0.01115,-0.53985 -0.289719,-1.05798 -0.684965,-1.51447 -0.395245,-0.45649 -0.907606,-0.85189 -1.380886,-1.17206 -0.47328,-0.32016 -0.907562,-0.56514 -1.227724,-0.72941 -0.320162,-0.16426 -0.526143,-0.24777 -0.676417,-0.26735 -0.150275,-0.0196 -0.244868,0.0249 -0.395119,0.37223 -0.150251,0.34728 -0.356675,1.00003 -0.584974,1.50404 -0.228299,0.50401 -0.47874,0.86019 -0.654226,1.1749 -0.175486,0.31471 -0.275629,0.58732 -0.353611,0.7962 -0.07798,0.20889 -0.133601,0.35349 -0.161502,0.42604 -0.0279,0.0725 -0.0279,0.0725 -0.03344,0.10857 z"
       inkscape:connector-curvature="0"
       id="path908"
       inkscape:path-effect="#path-effect910"
       inkscape:original-d="m 26.442979,225.93971 c -0.01087,0.0721 -0.02201,0.14451 -0.03341,0.21716 0.07854,0.28488 0.156171,0.56768 0.23386,0.85192 0.769149,-0.0838 1.537065,-0.16731 2.305201,-0.25057 0.52347,-0.0559 1.04707,-0.11162 1.570207,-0.16704 0.52338,0.1166 1.04707,0.2336 1.570209,0.35079 0.256302,-0.56243 0.512533,-1.12502 0.768401,-1.68714 -0.277985,-0.5178 -0.556549,-1.03593 -0.835219,-1.5535 -0.511908,-0.39553 -1.024268,-0.79094 -1.5368,-1.18601 -0.434078,-0.24528 -0.86836,-0.49026 -1.302938,-0.73499 -0.205796,-0.0838 -0.411776,-0.16731 -0.618061,-0.25057 -0.09445,0.0443 -0.189051,0.0888 -0.283972,0.13364 -0.212038,0.64781 -0.411777,1.30267 -0.618062,1.95441 -0.250423,0.35627 -0.500867,0.71245 -0.751697,1.06908 -0.100044,0.2728 -0.200186,0.54541 -0.300678,0.81851 -0.05548,0.14467 -0.111096,0.28928 -0.167042,0.43431 z"
       inkscape:export-filename="/home/thiago/Documentos/Algoritmos/Algoritmos/grafos/assets/ilhas.png"
       inkscape:export-xdpi="97"
       inkscape:export-ydpi="97"
       transform="translate(30.381297,-62.281658)" />
    <path
       style="fill:#645442;fill-opacity:1;stroke:none;stroke-width:0.26458332px;stroke-linecap:butt;stroke-linejoin:miter;stroke-opacity:1"
       d="m 46.184861,220.74731 c -0.403513,0.19773 -1.261001,0.38148 -2.104714,0.60702 -0.843712,0.22554 -1.673063,0.49272 -2.232889,0.43978 -0.559826,-0.0529 -0.849256,-0.42586 -0.676502,-0.75163 0.172754,-0.32577 0.807582,-0.60421 1.213899,-1.03011 0.406318,-0.4259 0.584588,-0.99971 0.617954,-1.48952 0.03337,-0.48981 -0.07806,-0.89651 -0.06676,-1.12477 0.0113,-0.22826 0.144975,-0.27839 0.581045,-0.003 0.43607,0.27498 1.178396,0.87777 1.724039,1.38722 0.545642,0.50945 0.896449,0.92708 1.096891,1.2416 0.200441,0.31452 0.25055,0.52609 -0.152963,0.72382 z"
       inkscape:connector-curvature="0"
       id="path912"
       inkscape:path-effect="#path-effect914"
       inkscape:original-d="m 46.638532,220.76136 c -0.857226,0.18349 -1.714714,0.36724 -2.572469,0.55125 -0.829681,0.2671 -1.659033,0.53427 -2.488946,0.80181 -0.289388,-0.37348 -0.578821,-0.7464 -0.868627,-1.1192 0.634965,-0.27864 1.269793,-0.55707 1.904296,-0.83521 0.178353,-0.57349 0.356624,-1.1473 0.534537,-1.72055 -0.111035,-0.40651 -0.222459,-0.81321 -0.334086,-1.21942 0.133842,-0.0504 0.267533,-0.10049 0.400904,-0.15034 0.739056,0.59966 1.481384,1.20245 2.221677,1.80407 0.351042,0.41733 0.701847,0.83496 1.052375,1.25283 0.05038,0.21134 0.100492,0.42291 0.150339,0.63476 z"
       inkscape:export-filename="/home/thiago/Documentos/Algoritmos/Algoritmos/grafos/assets/ilhas.png"
       inkscape:export-xdpi="97"
       inkscape:export-ydpi="97"
       transform="translate(30.381297,-62.281658)" />
    <path
       style="fill:#8e704d;fill-opacity:1;stroke:none;stroke-width:0.26458332px;stroke-linecap:butt;stroke-linejoin:miter;stroke-opacity:1"
       d="m 109.69192,204.7579 c 0.5513,-1.05534 1.65373,-3.16571 2.03164,-5.3861 0.3779,-2.22039 0.0314,-4.55159 0.14165,-6.61467 0.11028,-2.06308 0.6773,-3.85864 1.32292,-4.50422 0.64562,-0.64557 1.37021,-0.14151 2.58283,0.58291 1.21263,0.72443 2.91365,1.66944 3.68529,1.96859 0.77163,0.29915 0.61414,-0.0473 0.11036,-0.53537 -0.50377,-0.48804 -1.35451,-1.11822 -2.2522,-1.66943 -0.89769,-0.55122 -1.84258,-1.02367 -2.61438,-1.66947 -0.77181,-0.6458 -1.37021,-1.46466 -1.03933,-2.1419 0.33087,-0.67723 1.59086,-1.21273 1.73258,-1.85826 0.14172,-0.64554 -0.83496,-1.40167 -1.90588,-2.07888 -1.07092,-0.67721 -2.2363,-1.27565 -3.21285,-2.18921 -0.97655,-0.91355 -1.76393,-2.14187 -2.78751,-3.10248 -1.02358,-0.96061 -2.28357,-1.65361 -3.71681,-2.5671 -1.43324,-0.91349 -3.03952,-2.04734 -4.567147,-2.85053 -1.527622,-0.8032 -2.976485,-1.27566 -4.488423,-1.49617 -1.511938,-0.22051 -3.086663,-0.18902 -4.378266,-0.48827 -1.291604,-0.29926 -2.299367,-0.92911 -3.291535,-1.37009 -0.992168,-0.44098 -1.968534,-0.69295 -2.834755,-0.80322 -0.866221,-0.11027 -1.62203,-0.0788 -2.445522,-0.13838 -0.823491,-0.0596 -1.71381,-0.21026 -0.957522,-0.58837 0.756289,-0.3781 3.158262,-0.9832 5.666499,-1.17554 2.508236,-0.19234 5.122912,0.0282 7.233152,0.46913 2.110239,0.44095 3.716787,1.10248 5.527802,2.0946 1.811017,0.99213 3.827057,2.31515 5.701147,3.65379 1.87409,1.33864 3.60654,2.6931 5.21295,3.81128 1.6064,1.11818 3.08683,2.00014 4.80344,2.89781 1.71661,0.89768 3.66959,1.81117 5.26021,2.55135 1.59061,0.74019 2.8191,1.30719 3.68519,2.39368 0.86609,1.0865 1.37011,2.69305 1.63787,4.646 0.26776,1.95294 0.29926,4.25206 -0.23874,6.11309 -0.538,1.86102 -1.64549,3.28343 -2.76375,4.44898 -1.11827,1.16555 -2.24679,2.07365 -3.63033,3.26818 -1.38354,1.19452 -3.02102,2.67455 -4.50151,3.76133 -1.4805,1.08679 -2.8032,1.77963 -3.76398,2.12619 -0.96079,0.34656 -1.55911,0.34656 -1.74807,0.20461 -0.18895,-0.14195 0.0314,-0.42531 0.14156,-0.5669 0.11013,-0.1416 0.11012,-0.14162 0.66142,-1.19696 z"
       inkscape:connector-curvature="0"
       id="path916"
       inkscape:path-effect="#path-effect918"
       inkscape:original-d="m 109.14062,205.81324 c 1.1027,-2.11063 2.20513,-4.221 3.3073,-6.3311 -0.34617,-2.33077 -0.6927,-4.66197 -1.03944,-6.99256 0.56718,-1.79548 1.13419,-3.59104 1.70089,-5.38616 0.72459,0.50362 1.44918,1.00767 2.17337,1.51191 1.70103,0.9446 3.40205,1.88961 5.10268,2.83482 -0.15722,-0.34673 -0.31472,-0.69322 -0.47247,-1.03944 -0.84989,-0.63001 -1.70063,-1.26018 -2.55134,-1.88988 -0.94473,-0.47276 -1.88962,-0.9452 -2.83483,-1.41741 -0.59826,-0.8193 -1.19666,-1.63816 -1.79538,-2.45684 1.26011,-0.53571 2.5201,-1.0712 3.77976,-1.6064 -0.97593,-0.75603 -1.95261,-1.51217 -2.92932,-2.26786 -1.1652,-0.59875 -2.33058,-1.19719 -3.49628,-1.79539 -0.78725,-1.22879 -1.57463,-2.45711 -2.36235,-3.68527 -1.25958,-0.69318 -2.51957,-1.38617 -3.77976,-2.07887 -1.60625,-1.13427 -3.21253,-2.26812 -4.819195,-3.40178 -1.448691,-0.47275 -2.897552,-0.94521 -4.346725,-1.41741 -1.574814,0.0312 -3.149539,0.0627 -4.724705,0.0945 -1.007842,-0.63033 -2.015606,-1.26018 -3.023809,-1.88988 -0.976243,-0.25227 -1.952611,-0.50423 -2.929315,-0.75595 -0.75583,0.0312 -1.511639,0.0627 -2.267858,0.0945 -0.890701,-0.15103 -1.781021,-0.30168 -2.671929,-0.45213 2.403388,-0.60565 4.80536,-1.21075 7.207644,-1.81572 2.614261,0.22019 5.228937,0.4407 7.843007,0.66145 1.606515,0.66114 3.213063,1.32266 4.819195,1.98438 2.01597,1.32254 4.03201,2.64557 6.04762,3.96875 1.7326,1.35411 3.46505,2.70857 5.19717,4.06324 1.48064,0.88167 2.96108,1.76363 4.44122,2.64584 1.95304,0.91313 3.90602,1.82662 5.85863,2.74032 1.22862,0.56667 2.45711,1.13367 3.68527,1.7009 0.50419,1.60598 1.0082,3.21253 1.51191,4.81919 0.0318,2.29933 0.0633,4.59845 0.0945,6.89807 -1.10747,1.42246 -2.21495,2.84487 -3.32282,4.2677 -1.12872,0.90821 -2.25724,1.81631 -3.38626,2.72486 -1.63805,1.48052 -3.27553,2.96055 -4.91369,4.44122 -1.32287,0.69281 -2.64557,1.38565 -3.96875,2.07887 -0.59834,-2.7e-4 -1.19666,-2.7e-4 -1.79538,0 0.22084,-0.28387 0.44123,-0.56723 0.66145,-0.85045 z"
       inkscape:export-filename="/home/thiago/Documentos/Algoritmos/Algoritmos/grafos/assets/ilhas.png"
       inkscape:export-xdpi="97"
       inkscape:export-ydpi="97"
       transform="translate(30.381297,-62.281658)" />
    <path
       style="fill:#8e704d;fill-opacity:1;stroke:none;stroke-width:0.26458332px;stroke-linecap:butt;stroke-linejoin:miter;stroke-opacity:1"
       d="m 82.825981,245.14394 c -0.272892,0.30614 -0.673798,0.87409 -1.002422,1.45332 -0.328624,0.57924 -0.584623,1.16914 -0.952169,1.64815 -0.367545,0.479 -0.846146,0.8463 -0.974317,1.40337 -0.128171,0.55706 0.09442,1.30273 0.06666,1.92078 -0.02776,0.61804 -0.306103,1.10793 -0.629099,1.42545 -0.322996,0.31752 -0.690256,0.4622 -0.706902,0.59598 -0.01665,0.13378 0.317153,0.25617 0.729155,0.29511 0.412002,0.0389 0.902214,-0.006 1.403209,-0.14481 0.500995,-0.13919 1.013564,-0.37319 1.378437,-0.60983 0.364873,-0.23665 0.592771,-0.48734 0.909878,-1.00475 0.317108,-0.51741 0.729616,-1.30898 1.013499,-2.18297 0.283884,-0.87399 0.439854,-1.83209 0.450963,-2.57251 0.01111,-0.74042 -0.122567,-1.26399 -0.334077,-1.66475 -0.211511,-0.40076 -0.501158,-0.67927 -0.718162,-0.79625 -0.217004,-0.11698 -0.36176,-0.0724 -0.634653,0.23371 z"
       inkscape:connector-curvature="0"
       id="path920"
       inkscape:path-effect="#path-effect922"
       inkscape:original-d="m 82.95378,244.88244 c -0.40064,0.56768 -0.801545,1.13563 -1.202714,1.70384 -0.256006,0.59027 -0.512003,1.18018 -0.7684,1.77066 -0.478851,0.36743 -0.957451,0.73473 -1.436574,1.10249 0.223126,0.74632 0.445714,1.49199 0.668173,2.23838 -0.278204,0.48984 -0.556545,0.97973 -0.835215,1.46998 -0.367467,0.1446 -0.734727,0.28928 -1.102487,0.43432 0.334639,0.12234 0.668438,0.24473 1.00226,0.36749 0.490043,-0.0448 0.980252,-0.0894 1.469983,-0.13363 0.51223,-0.23399 1.024797,-0.46799 1.5368,-0.70158 0.21172,-0.24511 0.445712,-0.49026 0.668174,-0.735 0.411839,-0.79004 0.824343,-1.58161 1.23612,-2.37201 0.156109,-0.9576 0.312078,-1.9157 0.467722,-2.87315 -0.133329,-0.5235 -0.267004,-1.04707 -0.400904,-1.57021 -0.289174,-0.27857 -0.578819,-0.55708 -0.868628,-0.83522 -0.144507,0.0443 -0.289276,0.0888 -0.43431,0.13364 z"
       inkscape:export-filename="/home/thiago/Documentos/Algoritmos/Algoritmos/grafos/assets/ilhas.png"
       inkscape:export-xdpi="97"
       inkscape:export-ydpi="97"
       transform="translate(30.381297,-62.281658)" />
    <path
       style="fill:#c8e3f1;fill-opacity:1;stroke:none;stroke-width:0.26458332px;stroke-linecap:butt;stroke-linejoin:miter;stroke-opacity:1"
       d="m 110.74983,188.53296 c 0.10025,-0.62378 0.30071,-1.87103 -0.0778,-3.12915 -0.37856,-1.25811 -1.3365,-2.52794 -2.22738,-3.67495 -0.89089,-1.14701 -1.715,-2.17158 -3.07354,-3.29628 -1.35855,-1.12471 -3.25176,-2.34973 -4.4434,-3.28523 -1.191633,-0.93549 -1.681606,-1.58137 -1.481043,-1.87088 0.200562,-0.28952 1.091513,-0.2227 2.004443,0.23377 0.91293,0.45647 1.84862,1.30305 2.81748,2.116 0.96886,0.81295 1.97113,1.59249 2.91772,2.24953 0.94658,0.65704 1.83751,1.1916 2.76175,1.84859 0.92424,0.65699 1.88205,1.43659 2.47224,1.94884 0.5902,0.51224 0.81293,0.75725 0.62373,1.16918 -0.18919,0.41193 -0.79051,0.99098 -0.77938,1.64831 0.0111,0.65732 0.63448,1.39198 0.69032,1.87078 0.0558,0.47881 -0.45641,0.70153 -0.72383,1.04682 -0.26743,0.3453 -0.28968,0.81274 -0.40108,1.55915 -0.11139,0.74642 -0.31172,1.77034 -0.45651,2.62794 -0.1448,0.85761 -0.23386,1.54784 -0.33415,1.43632 -0.10028,-0.11152 -0.2116,-1.02431 -0.2784,-1.80378 -0.0668,-0.77947 -0.0891,-1.42553 -0.1002,-1.74836 -0.0111,-0.32282 -0.0112,-0.32282 0.0891,-0.9466 z"
       id="path924"
       inkscape:connector-curvature="0"
       inkscape:path-effect="#path-effect926"
       inkscape:original-d="m 110.64958,189.15674 c 0.20072,-1.24752 0.40117,-2.49478 0.60136,-3.74177 -0.95722,-1.26949 -1.91517,-2.53932 -2.87315,-3.80859 -0.82379,-1.02476 -1.6479,-2.04933 -2.47224,-3.0736 -1.89284,-1.22521 -3.78606,-2.45023 -5.67948,-3.67496 -0.489746,-0.64619 -0.979723,-1.29206 -1.46998,-1.9377 0.891106,0.0666 1.78206,0.13337 2.67269,0.20045 0.93546,0.84586 1.87116,1.69244 2.80633,2.53906 1.00252,0.77926 2.00479,1.55881 3.00679,2.33861 0.89113,0.53426 1.78206,1.06881 2.67269,1.60362 0.9579,0.7792 1.9157,1.55881 2.87315,2.3386 0.22298,0.24473 0.44571,0.48974 0.66817,0.735 -0.60112,0.57885 -1.20244,1.1579 -1.80407,1.73725 0.62418,0.73506 1.24753,1.46972 1.87089,2.20497 -0.51202,0.22247 -1.02427,0.44519 -1.5368,0.66818 -0.022,0.46774 -0.0443,0.93518 -0.0668,1.40316 -0.2003,1.02488 -0.40064,2.0488 -0.60135,3.0736 -0.0889,0.69039 -0.17792,1.38063 -0.26727,2.07134 -0.11115,-0.91382 -0.22246,-1.82661 -0.33409,-2.73951 -0.022,-0.64601 -0.0443,-1.29207 -0.0668,-1.93771 z"
       inkscape:export-filename="/home/thiago/Documentos/Algoritmos/Algoritmos/grafos/assets/ilhas.png"
       inkscape:export-xdpi="97"
       inkscape:export-ydpi="97"
       transform="translate(30.381297,-62.281658)" />
    <path
       style="fill:#c8e3f1;fill-opacity:1;stroke:none;stroke-width:0.26458332px;stroke-linecap:butt;stroke-linejoin:miter;stroke-opacity:1"
       d="m 96.612407,172.10162 c 0.139147,0.0946 0.205959,0.17257 0.417674,0.28399 0.211716,0.11143 0.567977,0.25616 0.890959,0.23379 0.322982,-0.0224 0.61263,-0.21175 0.596006,-0.37859 -0.01662,-0.16683 -0.33992,-0.31176 -0.590427,-0.32301 -0.250508,-0.0112 -0.428622,0.11121 -0.573665,0.0442 -0.145042,-0.067 -0.256216,-0.32269 -0.467543,-0.38398 -0.211327,-0.0613 -0.523291,0.0724 -0.573408,0.19506 -0.05012,0.12265 0.161257,0.2339 0.300404,0.32852 z"
       id="path928"
       inkscape:connector-curvature="0"
       inkscape:path-effect="#path-effect930"
       inkscape:original-d="m 96.68475,172.11831 c 0.06708,0.0777 0.1339,0.15564 0.200453,0.23386 0.356722,0.14455 0.712983,0.28928 1.069078,0.43431 0.289698,-0.18951 0.579348,-0.37889 0.868625,-0.56794 -0.322342,-0.14488 -0.645637,-0.28981 -0.968852,-0.43432 -0.177982,0.12228 -0.356094,0.24474 -0.534537,0.3675 -0.111289,-0.25683 -0.222462,-0.51253 -0.334087,-0.7684 -0.311399,0.13331 -0.623366,0.267 -0.935445,0.4009 0.212069,0.11121 0.423442,0.22246 0.634765,0.33409 z"
       inkscape:export-filename="/home/thiago/Documentos/Algoritmos/Algoritmos/grafos/assets/ilhas.png"
       inkscape:export-xdpi="97"
       inkscape:export-ydpi="97"
       transform="translate(30.381297,-62.281658)" />
    <path
       style="fill:#0090e0;fill-opacity:1;stroke:none;stroke-width:0.26458332px;stroke-linecap:butt;stroke-linejoin:miter;stroke-opacity:1"
       d="m 44.233209,187.46403 c 1.737116,1.38086 3.741638,4.00901 4.565749,6.94887 0.824112,2.93986 0.467758,6.19159 1.291897,9.15408 0.824139,2.96248 2.828478,5.63493 4.209373,8.84212 1.380894,3.20718 2.138145,6.94889 1.893199,10.33433 -0.244945,3.38544 -1.492134,6.41434 -2.538977,8.86441 -1.046844,2.45006 -1.893108,4.32076 -2.850914,6.43684 -0.957805,2.11608 -2.026701,4.47656 -1.44744,5.87993 0.579262,1.40338 2.80621,1.84877 4.832974,1.51462 2.026765,-0.33415 3.853271,-1.44788 4.120468,-3.42985 0.267197,-1.98197 -1.024825,-4.83334 -0.646069,-7.14969 0.378756,-2.31636 2.427912,-4.09824 5.501247,-5.65715 3.073334,-1.55891 7.172032,-2.89544 10.646378,-3.36311 3.474346,-0.46767 6.325442,-0.0667 8.708439,0.77958 2.382998,0.8463 4.298576,2.13821 5.679498,1.84852 1.380921,-0.28969 2.227303,-2.16064 1.581521,-4.0312 -0.645782,-1.87056 -2.784305,-3.74177 -4.477045,-5.59042 -1.692741,-1.84866 -2.939991,-3.67499 -2.650363,-6.14731 0.289627,-2.47233 2.116024,-5.59057 2.80638,-8.28537 0.690356,-2.6948 0.244864,-4.96681 -0.311924,-7.01577 -0.556788,-2.04895 -1.225023,-3.87546 -2.65024,-4.98898 -1.425217,-1.11351 -3.608096,-1.51445 -5.167218,-1.00229 -1.559121,0.51217 -2.494475,1.93747 -3.920156,2.2271 -1.425681,0.28963 -3.340701,-0.55654 -4.654887,-1.78167 -1.314187,-1.22512 -2.026863,-2.82864 -3.051163,-3.47452 -1.0243,-0.64589 -2.360748,-0.33405 -4.187354,0.17829 -1.826606,0.51233 -4.142408,1.22489 -6.436762,0.73484 -2.294354,-0.49004 -4.565838,-2.18252 -6.303133,-3.74164 -1.737295,-1.55911 -2.939985,-2.98452 -6.124765,-3.78631 -3.184779,-0.80179 -8.352079,-0.97997 -12.450263,-4e-5 -4.098184,0.97993 -7.12709,3.11798 -9.131771,6.12491 -2.004681,3.00692 -2.984571,6.88194 -4.565951,10.66841 -1.581379,3.78646 -3.763903,7.48339 -4.409879,11.9827 -0.645975,4.49931 0.244848,9.79971 1.425408,10.82413 1.18056,1.02442 2.650485,-2.22723 3.541311,-5.41203 0.890825,-3.18479 1.20267,-6.30324 2.115853,-9.04265 0.913184,-2.73941 2.427852,-5.10051 3.96452,-8.10706 1.536668,-3.00656 3.095943,-6.65972 4.655026,-8.575 1.559083,-1.91528 3.11829,-2.09347 5.078058,-2.53889 1.959769,-0.44541 4.321091,-1.15826 6.236385,-1.44775 1.915294,-0.28949 3.385473,-0.15584 5.12259,1.22502 z"
       id="path1112"
       inkscape:connector-curvature="0"
       inkscape:path-effect="#path-effect1114"
       inkscape:original-d="m 43.965836,186.21678 c 2.004787,2.62788 4.009308,5.25603 6.013566,7.88445 -0.3561,3.25156 -0.712454,6.50329 -1.069078,9.75534 2.004965,2.67267 4.009305,5.34512 6.013564,8.01808 0.757539,3.74157 1.514792,7.48328 2.271789,11.22532 -1.247061,3.02896 -2.494251,6.05785 -3.741772,9.08717 -0.846177,1.87082 -1.692442,3.74151 -2.539061,5.61266 -1.068996,2.36101 -2.137891,4.72149 -3.207234,7.08264 2.22781,0.44524 4.454758,0.89063 6.681737,1.33635 1.82644,-1.11379 3.652949,-2.22751 5.479026,-3.34087 -1.291317,-2.85066 -2.583341,-5.70202 -3.875407,-8.55263 2.049245,-1.78198 4.098396,-3.56386 6.147199,-5.34539 4.097832,-1.33643 8.19653,-2.67296 12.294396,-4.00904 2.85092,0.40061 5.702017,0.80154 8.552628,1.20271 1.915546,1.29144 3.831126,2.58334 5.746294,3.87541 0.84659,-1.87109 1.692971,-3.74204 2.539058,-5.61266 -2.137526,-1.87083 -4.276047,-3.74204 -6.414468,-5.61266 -1.247002,-1.82662 -2.494251,-3.65295 -3.741772,-5.47902 1.826549,-3.11832 3.652949,-6.23656 5.479024,-9.35444 -0.445138,-2.27183 -0.890633,-4.54384 -1.336347,-6.81537 -0.667848,-1.82644 -1.336083,-3.65295 -2.004521,-5.47903 -2.182259,-0.40113 -4.365138,-0.80207 -6.548104,-1.20271 -0.935267,1.42531 -1.870622,2.85061 -2.806329,4.27631 -1.915578,-0.8468 -3.830598,-1.69297 -5.746295,-2.53906 -0.712499,-1.60398 -1.425173,-3.2075 -2.138156,-4.81085 -1.335982,0.31153 -2.672432,0.62336 -4.009044,0.93545 -2.316606,0.71261 -4.632406,1.42517 -6.949008,2.13815 -2.271834,-1.6932 -4.543317,-3.38568 -6.815373,-5.07812 -1.20247,-1.42573 -2.40516,-2.85114 -3.608136,-4.27631 -5.16686,-0.17844 -10.334159,-0.35663 -15.501633,-0.53454 -3.02894,2.138 -6.057846,4.27605 -9.087165,6.41447 -0.979821,3.87553 -1.959711,7.75055 -2.939964,11.62622 -2.182613,3.69726 -4.365138,7.39419 -6.548104,11.09169 0.891238,5.30102 1.782062,10.60142 2.672695,15.90253 1.470307,-3.25217 2.94023,-6.50382 4.409948,-9.75533 0.312048,-3.11811 0.623893,-6.23656 0.935443,-9.35444 1.514652,-2.36092 3.029319,-4.72202 4.543582,-7.08264 1.559134,-3.65247 3.118409,-7.30563 4.677215,-10.95805 1.559203,-0.17843 3.118411,-0.35662 4.677217,-0.53454 2.360705,-0.71285 4.722027,-1.4257 7.082644,-2.13815 1.470049,0.13335 2.940228,0.267 4.409946,0.4009 z"
       inkscape:export-filename="/home/thiago/Documentos/Algoritmos/Algoritmos/grafos/assets/ilhas.png"
       inkscape:export-xdpi="97"
       inkscape:export-ydpi="97"
       transform="translate(30.381297,-62.281658)" />
    <path
       style="fill:#0090e0;fill-opacity:1;stroke:none;stroke-width:0.26458332px;stroke-linecap:butt;stroke-linejoin:miter;stroke-opacity:1"
       d="m 80.950174,145.43132 c -2.456883,2.14181 -4.850728,5.03962 -5.138617,8.50808 -0.287888,3.46845 1.530116,7.50657 3.861177,8.19942 2.331061,0.69285 5.174494,-1.95968 8.355622,-2.15798 3.181128,-0.1983 8.67069,3.32062 13.647424,4.9585 4.97673,1.63788 10.42594,2.02636 14.78819,4.04739 4.36226,2.02103 7.6382,5.67496 10.53601,9.07674 2.89782,3.40178 5.41765,6.55157 8.00067,7.37044 2.58302,0.81887 5.22883,-0.69302 5.66972,-4.47242 0.4409,-3.7794 -1.3232,-9.82774 -3.96896,-14.6153 -2.64576,-4.78756 -6.17364,-8.31544 -11.40217,-10.07932 -5.22854,-1.76389 -12.1581,-1.76389 -17.19795,-2.83485 -5.03985,-1.07095 -8.189527,-3.21274 -11.150387,-5.54363 -2.960861,-2.33089 -5.732637,-4.85068 -8.378327,-5.41774 -2.645689,-0.56705 -5.165518,0.81885 -7.622402,2.96067 z"
       id="path1116"
       inkscape:connector-curvature="0"
       inkscape:path-effect="#path-effect1118"
       inkscape:original-d="m 80.886905,144.67559 c -2.393585,2.89756 -4.787434,5.79537 -7.181548,8.69346 1.818629,4.03866 3.636637,8.07678 5.454557,12.11557 2.843871,-2.65296 5.687306,-5.30549 8.530561,-7.95784 4.157604,1.25954 9.008768,5.77437 13.512755,8.66195 5.4493,0.38821 10.89851,0.77669 16.34736,1.16543 3.27591,3.65335 6.55186,7.30728 9.82738,10.96131 2.52012,3.14955 5.03995,6.29934 7.55953,9.44941 2.64612,-1.51219 5.29193,-3.02408 7.9375,-4.53572 -1.76342,-6.04716 -3.52751,-12.0955 -5.29167,-18.14285 -3.52741,-3.52795 -7.05529,-7.05582 -10.58333,-10.58333 -6.9293,-2.7e-4 -13.85886,-2.7e-4 -20.78869,0 -3.14966,-2.14222 -6.29934,-4.284 -9.449405,-6.4256 -2.771614,-2.52015 -5.543389,-5.03995 -8.315479,-7.55953 -2.519587,1.38566 -5.039415,2.77157 -7.559521,4.15774 z"
       inkscape:export-filename="/home/thiago/Documentos/Algoritmos/Algoritmos/grafos/assets/ilhas.png"
       inkscape:export-xdpi="97"
       inkscape:export-ydpi="97"
       transform="translate(30.381297,-62.281658)" />
    <path
       style="fill:#d1e3f2;fill-opacity:1;stroke:none;stroke-width:0.26458332px;stroke-linecap:butt;stroke-linejoin:miter;stroke-opacity:1"
       d="m 4.9136905,278.85715 c 3.714259,1.3221 7.2273685,3.14639 10.8689315,4.65725 3.641564,1.51086 7.489123,2.72038 11.431663,2.71328 2.187846,-0.004 4.395194,-0.39353 6.374694,-1.32533 1.9795,-0.93181 3.721761,-2.42701 4.775604,-4.34433 0.539355,-0.98128 0.896677,-2.07353 0.949067,-3.19204 0.05239,-1.11851 -0.211122,-2.26324 -0.824859,-3.1998 -0.613737,-0.93655 -1.589118,-1.6488 -2.68814,-1.86318 -0.549511,-0.10719 -1.124084,-0.0908 -1.663587,0.0589 -0.539503,0.14963 -1.042744,0.43327 -1.442124,0.82563 -0.519123,0.51 -0.846018,1.17795 -1.23904,1.79043 -0.196511,0.30623 -0.412715,0.60244 -0.674989,0.85465 -0.262274,0.25221 -0.573236,0.45999 -0.920793,0.5677 -0.330793,0.10252 -0.688348,0.11142 -1.026859,0.0383 -0.338512,-0.0731 -0.65785,-0.22694 -0.934219,-0.43564 -0.552737,-0.41739 -0.923188,-1.04392 -1.123293,-1.70701 -0.400211,-1.32619 -0.155669,-2.74728 -0.128425,-4.13227 0.03063,-1.55699 -0.226513,-3.13422 -0.881049,-4.54728 -0.654536,-1.41307 -1.721844,-2.65457 -3.091381,-3.39588 -1.369536,-0.74131 -3.045527,-0.95095 -4.517679,-0.44307 -0.736075,0.25394 -1.413706,0.68173 -1.946814,1.24925 -0.533107,0.56753 -0.919288,1.27491 -1.091352,2.03431 -0.28929,1.27677 0.02723,2.60159 0.281295,3.88583 0.127031,0.64213 0.238895,1.29048 0.250967,1.94493 0.01207,0.65446 -0.07894,1.31893 -0.343273,1.91775 -0.361782,0.81957 -1.043316,1.48329 -1.850901,1.87109 -0.807584,0.38779 -1.733709,0.50596 -2.621537,0.38621 -0.8878281,-0.11974 -1.7371707,-0.4714 -2.4815236,-0.96992 -0.7443529,-0.49851 -1.386098,-1.14131 -1.9284793,-1.85433 -1.2029983,-1.58148 -1.9088816,-3.47844 -2.9238354,-5.1867 -0.5074769,-0.85413 -1.098615,-1.66797 -1.8373668,-2.33228 -0.73875193,-0.66432 -1.63379278,-1.17535 -2.60933337,-1.36347 -1.19940013,-0.23129 -2.47884803,0.0472 -3.50462753,0.71035 -1.0257795,0.6632 -1.7960766,1.69621 -2.1926287,2.85155 -0.3965521,1.15533 -0.4260351,2.42549 -0.1387823,3.61273 0.2872527,1.18725 0.8846781,2.29114 1.6783006,3.2197 1.2332729,1.44296 2.9082802,2.4466 4.65193571,3.19677 1.74365559,0.75017 3.57616309,1.26939 5.36443319,1.90593 z"
       id="path1120"
       inkscape:connector-curvature="0"
       inkscape:path-effect="#path-effect1122"
       inkscape:original-d="m 4.9136905,278.85715 c 3.3385249,1.70114 14.8673275,4.91342 22.3005945,7.37053 7.433267,2.4571 7.433796,-3.78003 11.150298,-5.66966 3.716501,-1.8896 -3.779496,-4.91394 -5.669643,-7.37052 -1.890146,-2.45658 -1.889617,2.14159 -2.834822,3.21278 -0.945206,1.07122 -2.141601,-4.15798 -3.212796,-6.2366 -1.071198,-2.07859 -7.685252,-3.40204 -11.528275,-5.10267 -3.843022,-1.70063 0.126257,5.16541 0.188989,7.74851 0.06273,2.5831 -5.9213627,-0.37825 -8.8824409,-0.56695 -2.961078,-0.18873 -4.9134258,-5.92191 -7.37053557,-8.88245 -2.45710983,-2.96055 -2.77156073,6.92929 -4.15773793,10.39433 -1.3861775,3.46506 6.6778438,3.40154 10.0163689,5.1027 z"
       transform="translate(54.571773,-89.495944)"
       inkscape:export-filename="/home/thiago/Documentos/Algoritmos/Algoritmos/grafos/assets/ilhas.png"
       inkscape:export-xdpi="97"
       inkscape:export-ydpi="97" />
    <path
       style="fill:#d1e3f2;fill-opacity:0.63350782;stroke:none;stroke-width:0.26458332px;stroke-linecap:butt;stroke-linejoin:miter;stroke-opacity:1"
       d="m 67.27976,283.20386 c 1.592935,-0.26619 3.238629,-0.0831 4.792002,0.35883 1.553373,0.44196 3.023419,1.1368 4.44572,1.90189 2.844602,1.53017 5.584036,3.37553 8.716149,4.16487 3.775949,0.9516 7.848833,0.25348 11.355911,-1.43878 3.507078,-1.69225 6.491488,-4.32332 9.054798,-7.25466 1.60535,-1.83584 3.07767,-3.82547 4.01729,-6.07592 0.93962,-2.25046 1.31789,-4.79216 0.70742,-7.15325 -0.5424,-2.09782 -1.91047,-4.01703 -3.83672,-5.0093 -0.96313,-0.49614 -2.05128,-0.75581 -3.13397,-0.71647 -1.08269,0.0394 -2.15702,0.38135 -3.04568,1.00107 -1.453855,1.01388 -2.309041,2.65931 -3.13942,4.22523 -0.415189,0.78296 -0.839633,1.5649 -1.365027,2.2786 -0.525395,0.7137 -1.157906,1.36123 -1.921151,1.81164 -1.059123,0.62501 -2.352256,0.84006 -3.557791,0.59703 -1.205536,-0.24304 -2.312772,-0.94076 -3.056792,-1.91995 -0.544365,-0.71643 -0.892387,-1.56552 -1.127752,-2.43397 -0.235365,-0.86846 -0.363131,-1.76172 -0.505344,-2.65019 -0.142212,-0.88847 -0.300491,-1.77897 -0.593709,-2.62963 -0.293218,-0.85066 -0.728412,-1.66565 -1.363969,-2.30257 -0.657884,-0.6593 -1.518155,-1.10811 -2.429865,-1.29856 -0.91171,-0.19045 -1.871739,-0.12545 -2.758686,0.15882 -1.773894,0.56855 -3.202397,2.00411 -3.964977,3.70364 -0.787896,1.75596 -0.905924,3.73396 -0.888907,5.65851 0.01702,1.92454 0.155861,3.86466 -0.162923,5.7627 -0.281835,1.67804 -0.949791,3.33491 -2.152542,4.53851 -0.601376,0.6018 -1.330884,1.08119 -2.135887,1.35648 -0.805003,0.27529 -1.68575,0.3422 -2.51514,0.15265 -1.125895,-0.25731 -2.089626,-0.95693 -3.055392,-1.59029 -0.482883,-0.31668 -0.976417,-0.62156 -1.505773,-0.8523 -0.529355,-0.23075 -1.098011,-0.38636 -1.675443,-0.39224 -0.856647,-0.009 -1.709765,0.32453 -2.342743,0.90182 -0.632977,0.57729 -1.041895,1.39109 -1.140662,2.24207 -0.09877,0.85098 0.110731,1.73228 0.570528,2.45512 0.459796,0.72285 1.164941,1.28399 1.967936,1.58252 1.244402,0.46263 2.635939,0.29085 3.917656,-0.0552 1.281718,-0.34608 2.521395,-0.85988 3.830855,-1.0787 z"
       id="path1124"
       inkscape:connector-curvature="0"
       inkscape:path-effect="#path-effect1126"
       inkscape:original-d="m 67.27976,283.20386 c 2.582574,-0.37769 11.969512,4.28347 17.953871,6.42559 5.984359,2.14215 13.607407,-5.79588 20.410709,-8.69344 6.80331,-2.89756 3.15007,-8.8197 4.72471,-13.22917 1.57463,-4.40946 -6.67732,-3.15006 -10.01637,-4.7247 -3.339056,-1.57464 -4.283468,5.54338 -6.425598,8.31547 -2.14213,2.77209 -4.409458,-0.8822 -6.614583,-1.32292 -2.205125,-0.44069 -2.393585,-6.67784 -3.590774,-10.01636 -1.19719,-3.33852 -6.102088,1.709 -9.153528,2.5639 -3.051442,0.85489 -0.700955,7.61388 -1.05183,11.42121 -0.350872,3.80736 -4.535447,4.03148 -6.803569,6.04764 -2.268123,2.01612 -4.157475,-1.89016 -6.236608,-2.83483 -2.079133,-0.94467 -0.629695,4.78742 -0.944941,7.18153 -0.315245,2.39414 5.165939,-0.7562 7.748511,-1.13392 z"
       transform="translate(56.461654,-109.15071)"
       inkscape:export-filename="/home/thiago/Documentos/Algoritmos/Algoritmos/grafos/assets/ilhas.png"
       inkscape:export-xdpi="97"
       inkscape:export-ydpi="97" />
    <path
       style="fill:#d1e3f2;fill-opacity:0.63350782;stroke:none;stroke-width:0.26458332px;stroke-linecap:butt;stroke-linejoin:miter;stroke-opacity:1"
       d="m 67.27976,283.20386 c 1.592935,-0.26619 3.238629,-0.0831 4.792002,0.35883 1.553373,0.44196 3.023419,1.1368 4.44572,1.90189 2.844602,1.53017 5.584036,3.37553 8.716149,4.16487 3.775949,0.9516 7.848833,0.25348 11.355911,-1.43878 3.507078,-1.69225 6.491488,-4.32332 9.054798,-7.25466 1.60535,-1.83584 3.07767,-3.82547 4.01729,-6.07592 0.93962,-2.25046 1.31789,-4.79216 0.70742,-7.15325 -0.5424,-2.09782 -1.91047,-4.01703 -3.83672,-5.0093 -0.96313,-0.49614 -2.05128,-0.75581 -3.13397,-0.71647 -1.08269,0.0394 -2.15702,0.38135 -3.04568,1.00107 -1.453855,1.01388 -2.309041,2.65931 -3.13942,4.22523 -0.415189,0.78296 -0.839633,1.5649 -1.365027,2.2786 -0.525395,0.7137 -1.157906,1.36123 -1.921151,1.81164 -1.059123,0.62501 -2.352256,0.84006 -3.557791,0.59703 -1.205536,-0.24304 -2.312772,-0.94076 -3.056792,-1.91995 -0.544365,-0.71643 -0.892387,-1.56552 -1.127752,-2.43397 -0.235365,-0.86846 -0.363131,-1.76172 -0.505344,-2.65019 -0.142212,-0.88847 -0.300491,-1.77897 -0.593709,-2.62963 -0.293218,-0.85066 -0.728412,-1.66565 -1.363969,-2.30257 -0.657884,-0.6593 -1.518155,-1.10811 -2.429865,-1.29856 -0.91171,-0.19045 -1.871739,-0.12545 -2.758686,0.15882 -1.773894,0.56855 -3.202397,2.00411 -3.964977,3.70364 -0.787896,1.75596 -0.905924,3.73396 -0.888907,5.65851 0.01702,1.92454 0.155861,3.86466 -0.162923,5.7627 -0.281835,1.67804 -0.949791,3.33491 -2.152542,4.53851 -0.601376,0.6018 -1.330884,1.08119 -2.135887,1.35648 -0.805003,0.27529 -1.68575,0.3422 -2.51514,0.15265 -1.125895,-0.25731 -2.089626,-0.95693 -3.055392,-1.59029 -0.482883,-0.31668 -0.976417,-0.62156 -1.505773,-0.8523 -0.529355,-0.23075 -1.098011,-0.38636 -1.675443,-0.39224 -0.856647,-0.009 -1.709765,0.32453 -2.342743,0.90182 -0.632977,0.57729 -1.041895,1.39109 -1.140662,2.24207 -0.09877,0.85098 0.110731,1.73228 0.570528,2.45512 0.459796,0.72285 1.164941,1.28399 1.967936,1.58252 1.244402,0.46263 2.635939,0.29085 3.917656,-0.0552 1.281718,-0.34608 2.521395,-0.85988 3.830855,-1.0787 z"
       id="path1124-5"
       inkscape:connector-curvature="0"
       inkscape:path-effect="#path-effect1126-7"
       inkscape:original-d="m 67.27976,283.20386 c 2.582574,-0.37769 11.969512,4.28347 17.953871,6.42559 5.984359,2.14215 13.607407,-5.79588 20.410709,-8.69344 6.80331,-2.89756 3.15007,-8.8197 4.72471,-13.22917 1.57463,-4.40946 -6.67732,-3.15006 -10.01637,-4.7247 -3.339056,-1.57464 -4.283468,5.54338 -6.425598,8.31547 -2.14213,2.77209 -4.409458,-0.8822 -6.614583,-1.32292 -2.205125,-0.44069 -2.393585,-6.67784 -3.590774,-10.01636 -1.19719,-3.33852 -6.102088,1.709 -9.153528,2.5639 -3.051442,0.85489 -0.700955,7.61388 -1.05183,11.42121 -0.350872,3.80736 -4.535447,4.03148 -6.803569,6.04764 -2.268123,2.01612 -4.157475,-1.89016 -6.236608,-2.83483 -2.079133,-0.94467 -0.629695,4.78742 -0.944941,7.18153 -0.315245,2.39414 5.165939,-0.7562 7.748511,-1.13392 z"
       transform="rotate(153.66364,91.42838,195.11999)"
       inkscape:transform-center-x="17.700317"
       inkscape:transform-center-y="10.760149"
       inkscape:export-filename="/home/thiago/Documentos/Algoritmos/Algoritmos/grafos/assets/ilhas.png"
       inkscape:export-xdpi="97"
       inkscape:export-ydpi="97" />
    <g
       id="g1312"
       transform="matrix(1.7999846,-1.402664,1.1033083,2.1440238,-243.66644,-169.37622)"
       inkscape:export-filename="/home/thiago/Documentos/Algoritmos/Algoritmos/grafos/assets/ilhas.png"
       inkscape:export-xdpi="97"
       inkscape:export-ydpi="97">
      <g
         id="g1343">
        <g
           transform="matrix(0.69882368,0.4953898,-0.4894217,0.69040476,116.00677,19.009044)"
           id="g1324">
          <rect
             ry="0.19209997"
             y="187.1188"
             x="78.092819"
             height="0.38419995"
             width="2.3887215"
             id="rect1203"
             style="opacity:1;fill:#685630;fill-opacity:1;stroke:none;stroke-width:0.5;stroke-linecap:round;stroke-miterlimit:4;stroke-dasharray:none;stroke-dashoffset:0;stroke-opacity:1;paint-order:markers fill stroke" />
          <g
             id="g1300">
            <g
               id="g1290">
              <rect
                 ry="0.19209997"
                 y="187.50301"
                 x="78.092812"
                 height="0.38419995"
                 width="2.3887215"
                 id="rect1203-3"
                 style="opacity:1;fill:#685630;fill-opacity:1;stroke:none;stroke-width:0.5;stroke-linecap:round;stroke-miterlimit:4;stroke-dasharray:none;stroke-dashoffset:0;stroke-opacity:1;paint-order:markers fill stroke" />
              <rect
                 ry="0.19209997"
                 y="187.88721"
                 x="78.092819"
                 height="0.38419995"
                 width="2.3887215"
                 id="rect1203-5"
                 style="opacity:1;fill:#685630;fill-opacity:1;stroke:none;stroke-width:0.5;stroke-linecap:round;stroke-miterlimit:4;stroke-dasharray:none;stroke-dashoffset:0;stroke-opacity:1;paint-order:markers fill stroke" />
              <rect
                 inkscape:transform-center-y="-0.37584777"
                 inkscape:transform-center-x="0.16704346"
                 ry="0.19209997"
                 y="188.27141"
                 x="78.092819"
                 height="0.38419995"
                 width="2.3887215"
                 id="rect1203-6"
                 style="opacity:1;fill:#685630;fill-opacity:1;stroke:none;stroke-width:0.5;stroke-linecap:round;stroke-miterlimit:4;stroke-dasharray:none;stroke-dashoffset:0;stroke-opacity:1;paint-order:markers fill stroke" />
              <path
                 inkscape:connector-curvature="0"
                 id="rect1203-7"
                 d="m 78.304659,187.12051 h 1.910357 c 0.101425,0 0.183076,0.0558 0.183076,0.12501 0,0.0692 -0.08165,0.125 -0.183076,0.125 h -1.910357 c -0.101425,0 -0.183076,-0.0557 -0.183076,-0.125 0,-0.0693 0.08165,-0.12501 0.183076,-0.12501 z"
                 style="opacity:1;fill:#927943;fill-opacity:1;stroke:none;stroke-width:0.39375526;stroke-linecap:round;stroke-miterlimit:4;stroke-dasharray:none;stroke-dashoffset:0;stroke-opacity:1;paint-order:markers fill stroke" />
              <path
                 inkscape:connector-curvature="0"
                 id="rect1203-3-0"
                 d="m 78.304651,187.50323 h 1.910359 c 0.101423,0 0.183076,0.0464 0.183076,0.10413 0,0.0577 -0.08165,0.10412 -0.183076,0.10412 h -1.910359 c -0.101424,0 -0.183076,-0.0464 -0.183076,-0.10412 0,-0.0577 0.08165,-0.10413 0.183076,-0.10413 z"
                 style="opacity:1;fill:#927943;fill-opacity:1;stroke:none;stroke-width:0.35936844;stroke-linecap:round;stroke-miterlimit:4;stroke-dasharray:none;stroke-dashoffset:0;stroke-opacity:1;paint-order:markers fill stroke" />
              <path
                 inkscape:connector-curvature="0"
                 id="rect1203-5-9"
                 d="m 78.310565,187.88596 h 1.910357 c 0.101425,0 0.183076,0.0483 0.183076,0.1083 0,0.06 -0.08165,0.10831 -0.183076,0.10831 h -1.910357 c -0.101425,0 -0.183076,-0.0483 -0.183076,-0.10831 0,-0.06 0.08165,-0.1083 0.183076,-0.1083 z"
                 style="opacity:1;fill:#927943;fill-opacity:1;stroke:none;stroke-width:0.36650401;stroke-linecap:round;stroke-miterlimit:4;stroke-dasharray:none;stroke-dashoffset:0;stroke-opacity:1;paint-order:markers fill stroke" />
            </g>
            <path
               style="opacity:1;fill:#927943;fill-opacity:1;stroke:none;stroke-width:0.33705664;stroke-linecap:round;stroke-miterlimit:4;stroke-dasharray:none;stroke-dashoffset:0;stroke-opacity:1;paint-order:markers fill stroke"
               inkscape:transform-center-x="0.15919649"
               inkscape:transform-center-y="-0.17921261"
               d="m 78.316471,188.27164 h 1.910357 c 0.101425,0 0.183076,0.0409 0.183076,0.0916 0,0.0507 -0.08165,0.0916 -0.183076,0.0916 h -1.910357 c -0.101425,0 -0.183076,-0.0408 -0.183076,-0.0916 0,-0.0507 0.08165,-0.0916 0.183076,-0.0916 z"
               id="rect1203-6-3"
               inkscape:connector-curvature="0" />
          </g>
        </g>
        <rect
           ry="0.05706498"
           transform="rotate(36.72928)"
           y="102.53361"
           x="175.26012"
           height="1.3064448"
           width="0.11412996"
           id="rect1326"
           style="opacity:1;fill:#715e34;fill-opacity:1;stroke:none;stroke-width:0.5;stroke-linecap:round;stroke-miterlimit:4;stroke-dasharray:none;stroke-dashoffset:0;stroke-opacity:1;paint-order:markers fill stroke" />
        <rect
           ry="0.050113037"
           transform="rotate(36.72928)"
           y="102.49951"
           x="176.72729"
           height="1.2653542"
           width="0.10022607"
           id="rect1328"
           style="opacity:1;fill:#715e34;fill-opacity:1;stroke:none;stroke-width:0.5;stroke-linecap:round;stroke-miterlimit:4;stroke-dasharray:none;stroke-dashoffset:0;stroke-opacity:1;paint-order:markers fill stroke" />
      </g>
      <rect
         style="opacity:1;fill:#715e34;fill-opacity:1;stroke:none;stroke-width:0.5;stroke-linecap:round;stroke-miterlimit:4;stroke-dasharray:none;stroke-dashoffset:0;stroke-opacity:1;paint-order:markers fill stroke"
         id="rect1349"
         width="0.054294799"
         height="1.4073448"
         x="176.02989"
         y="101.73112"
         transform="rotate(36.72928)"
         ry="0.035496734" />
      <rect
         style="opacity:1;fill:#ff3914;fill-opacity:1;stroke:none;stroke-width:0.5;stroke-linecap:round;stroke-miterlimit:4;stroke-dasharray:none;stroke-dashoffset:0;stroke-opacity:1;paint-order:markers fill stroke"
         id="rect1351"
         width="0.49276999"
         height="0.37585276"
         x="176.08418"
         y="101.73112"
         transform="rotate(36.72928)"
         ry="0.035496764" />
    </g>
  </g>
</svg>
